<?xml version="1.0" encoding="UTF-8"?>
<svg version="1.1" xmlns="http://www.w3.org/2000/svg" width="1024" height="1024">
<path d="M0 0 C1.66869141 -0.00193359 1.66869141 -0.00193359 3.37109375 -0.00390625 C4.53769531 -0.00003906 5.70429688 0.00382813 6.90625 0.0078125 C8.07285156 0.00394531 9.23945312 0.00007812 10.44140625 -0.00390625 C11.55386719 -0.00261719 12.66632813 -0.00132812 13.8125 0 C14.83666016 0.00112793 15.86082031 0.00225586 16.91601562 0.00341797 C19.40625 0.1328125 19.40625 0.1328125 21.40625 1.1328125 C23.04875334 1.27330882 24.69618491 1.35851332 26.34375 1.4140625 C27.80941406 1.47013672 27.80941406 1.47013672 29.3046875 1.52734375 C30.32820313 1.56214844 31.35171875 1.59695312 32.40625 1.6328125 C34.42723028 1.70153601 36.44807989 1.77425454 38.46875 1.8515625 C39.36722656 1.88185547 40.26570313 1.91214844 41.19140625 1.94335938 C43.40625 2.1328125 43.40625 2.1328125 45.40625 3.1328125 C47.73647478 3.33842057 50.07081298 3.49881202 52.40625 3.6328125 C59.18402778 4.02170139 59.18402778 4.02170139 61.40625 5.1328125 C62.705625 5.2565625 64.005 5.3803125 65.34375 5.5078125 C70.00399785 5.97233881 74.28518799 7.14509537 78.7734375 8.4453125 C81.08465803 9.04883596 83.22255122 9.40964085 85.59375 9.6328125 C89.10323726 10.09307312 91.90814899 11.00228322 95.171875 12.32421875 C97.72128465 13.24681979 100.26321647 13.84170079 102.90625 14.4453125 C109.91591006 16.14515507 116.53552347 18.65268245 123.23144531 21.28808594 C125.37196739 22.11949662 127.5232976 22.91391564 129.6796875 23.703125 C141.1425583 27.9908395 152.08167592 33.25595908 163.03125 38.6953125 C163.76776794 39.05839508 164.50428589 39.42147766 165.26312256 39.79556274 C173.00816052 43.62511731 180.4407414 47.48793076 187.40380859 52.65405273 C189.35064269 54.0917477 191.33922248 55.37596848 193.40625 56.6328125 C204.91182203 63.7256049 215.32040074 72.16988168 225.40625 81.1328125 C226.73861186 82.30058849 228.07195227 83.46724892 229.40625 84.6328125 C230.07269531 85.21804688 230.73914063 85.80328125 231.42578125 86.40625 C232.68558067 87.50453667 233.95304695 88.59413583 235.23046875 89.671875 C244.48616109 97.54988567 253.50209254 106.09040165 260.40625 116.1328125 C262.19492037 118.44077426 264.00940506 120.69109815 265.9609375 122.86328125 C269.91331451 127.26359432 273.38328761 131.81124257 276.71875 136.6953125 C278.24266502 138.89652308 279.8302735 141.01644702 281.46875 143.1328125 C284.1510836 146.68109631 286.42483158 150.37841097 288.6640625 154.21875 C290.30615569 156.96539018 292.03676369 159.64135289 293.78320312 162.32226562 C303.34901676 177.15751024 311.43479997 193.13832268 317.24609375 209.81640625 C318.2280294 212.62335362 319.30477907 215.33612197 320.46875 218.0703125 C322.86166701 223.95290015 324.5029032 230.06680283 326.25 236.1640625 C327.07706033 239.0400981 327.97021004 241.87335173 328.96875 244.6953125 C333.17529631 256.9803398 336.15680752 270.16041147 337.16015625 283.1015625 C337.29856607 285.19777004 337.29856607 285.19777004 338.40625 287.1328125 C338.6709488 290.54448598 338.85040224 293.94966746 339.01171875 297.3671875 C339.14312954 301.38032853 339.14312954 301.38032853 340.40625 305.1328125 C340.50234124 306.97594687 340.53420904 308.82257594 340.53564453 310.66821289 C340.54037277 312.40495018 340.54037277 312.40495018 340.54519653 314.17677307 C340.5431723 315.43199265 340.54114807 316.68721222 340.5390625 317.98046875 C340.54001923 319.26263779 340.54097595 320.54480682 340.54196167 321.86582947 C340.54343671 324.58024295 340.54128994 327.29462354 340.53662109 330.0090332 C340.53091822 333.49522291 340.53420754 336.98133573 340.54019356 340.46752262 C340.54466655 343.78434424 340.54153929 347.10114494 340.5390625 350.41796875 C340.54108673 351.67521255 340.54311096 352.93245636 340.54519653 354.22779846 C340.54204437 355.38247116 340.53889221 356.53714386 340.53564453 357.72680664 C340.53445114 359.25997276 340.53445114 359.25997276 340.53323364 360.82411194 C340.40625 363.1328125 340.40625 363.1328125 339.40625 364.1328125 C339.24427114 366.73947233 339.12696869 369.33614332 339.03125 371.9453125 C338.73430409 378.3978121 337.85333156 384.22846756 336.0859375 390.46484375 C335.44989199 392.96150517 335.17926395 395.19368843 335.03125 397.7578125 C334.45911895 405.02037398 332.09508873 411.95015346 330.05273438 418.90820312 C329.45869346 420.95234994 328.88750079 423.00082846 328.328125 425.0546875 C326.42734833 431.96385985 324.19654165 438.5375777 321.40625 445.1328125 C320.79997496 446.67365125 320.19587511 448.21534732 319.59375 449.7578125 C311.28247906 470.39269208 301.9469439 490.70912899 289.40625 509.1328125 C288.17101797 511.08732573 286.94153264 513.04548665 285.71875 515.0078125 C282.82455462 519.56250246 279.70529177 523.86605181 276.40625 528.1328125 C275.40415809 529.46457433 274.40417518 530.79792557 273.40625 532.1328125 C272.69927979 533.07012207 272.69927979 533.07012207 271.97802734 534.02636719 C271.00461892 535.33089777 270.04330036 536.64466455 269.10180664 537.97241211 C265.17762545 543.43186434 260.67315232 548.03462292 255.84375 552.6953125 C249.79887444 558.47935266 249.79887444 558.47935266 244.59375 565 C242.70070565 567.71110995 241.58091885 568.9003085 238.96875 570.6953125 C234.63524726 573.72958671 231.08957082 577.36375376 227.40625 581.1328125 C222.67266335 585.95626553 218.00059809 590.31288318 212.40625 594.1328125 C211.15325251 595.08722335 209.90337687 596.0457432 208.65625 597.0078125 C204.39875585 600.20093311 199.9815277 603.13425853 195.5390625 606.0625 C193.50355554 607.40766046 191.47690062 608.76634776 189.4609375 610.140625 C181.9972662 615.21592149 174.32104928 619.80533784 166.40625 624.1328125 C165.6745459 624.53290527 164.9428418 624.93299805 164.18896484 625.34521484 C135.24590814 641.0734254 104.41364738 652.8652434 71.81274414 658.18212891 C67.99436732 658.77193532 67.99436732 658.77193532 64.40625 660.1328125 C61.29355709 660.44713773 58.18007422 660.64371124 55.05859375 660.8515625 C52.48619595 660.84333248 52.48619595 660.84333248 51.40625 662.1328125 C49.94293379 662.27737436 48.47334324 662.3597726 47.00390625 662.4140625 C45.66875977 662.47013672 45.66875977 662.47013672 44.30664062 662.52734375 C43.37013672 662.56214844 42.43363281 662.59695313 41.46875 662.6328125 C39.62614241 662.70157602 37.78367711 662.77430168 35.94140625 662.8515625 C35.120354 662.88185547 34.29930176 662.91214844 33.45336914 662.94335938 C31.34162834 663.0139204 31.34162834 663.0139204 29.40625 664.1328125 C28.05857166 664.22676253 26.70641708 664.26074601 25.35546875 664.26220703 C24.10407104 664.26693527 24.10407104 664.26693527 22.82739258 664.27175903 C21.92529053 664.2697348 21.02318848 664.26771057 20.09375 664.265625 C19.16908936 664.26658173 18.24442871 664.26753845 17.29174805 664.26852417 C15.33479749 664.26920533 13.37784467 664.2673555 11.42089844 664.26318359 C8.41856836 664.25783445 5.4163879 664.26313075 2.4140625 664.26953125 C0.51562467 664.26887046 -1.38281307 664.26758927 -3.28125 664.265625 C-4.63440308 664.26866135 -4.63440308 664.26866135 -6.01489258 664.27175903 C-6.84915771 664.26860687 -7.68342285 664.26545471 -8.54296875 664.26220703 C-9.27862061 664.26141144 -10.01427246 664.26061584 -10.7722168 664.25979614 C-12.59375 664.1328125 -12.59375 664.1328125 -14.59375 663.1328125 C-16.3092782 662.99190968 -18.02958751 662.9069836 -19.75 662.8515625 C-21.28333984 662.79548828 -21.28333984 662.79548828 -22.84765625 662.73828125 C-24.45447266 662.68607422 -24.45447266 662.68607422 -26.09375 662.6328125 C-28.20847422 662.56410305 -30.32307326 662.49138706 -32.4375 662.4140625 C-33.84805664 662.36862305 -33.84805664 662.36862305 -35.28710938 662.32226562 C-37.59375 662.1328125 -37.59375 662.1328125 -39.59375 661.1328125 C-41.08954604 660.93188467 -42.59071724 660.76945184 -44.09375 660.6328125 C-48.37152778 660.24392361 -48.37152778 660.24392361 -50.59375 659.1328125 C-52.13274308 658.97834108 -53.67528275 658.85816176 -55.21875 658.7578125 C-59.35417629 658.38455769 -62.64969201 657.51401094 -66.45410156 655.91186523 C-68.57802843 655.13853677 -70.51397756 654.74882776 -72.7421875 654.390625 C-79.97389476 652.99578728 -86.88131667 650.58139848 -93.85009766 648.23950195 C-96.18984764 647.45500322 -98.53399378 646.6849242 -100.87890625 645.91601562 C-114.48770239 641.40389869 -127.58637088 636.01296708 -140.21875 629.1953125 C-141.011604 628.7720166 -141.80445801 628.3487207 -142.62133789 627.91259766 C-144.95104367 626.66260329 -147.27402868 625.40122651 -149.59375 624.1328125 C-150.25713379 623.77010254 -150.92051758 623.40739258 -151.60400391 623.03369141 C-172.67482362 611.43081712 -192.55657529 597.02828187 -210.59375 581.1328125 C-211.92660225 579.96559626 -213.25992979 578.7989225 -214.59375 577.6328125 C-215.25632812 577.05144531 -215.91890625 576.47007812 -216.6015625 575.87109375 C-217.90239967 574.73604956 -219.20946029 573.60808773 -220.5234375 572.48828125 C-228.07642578 566.01212463 -235.06314081 559.42872629 -240.59375 551.1328125 C-242.23804829 549.44407371 -243.90759218 547.77975735 -245.59375 546.1328125 C-249.13714084 542.66724137 -251.99226752 539.37226543 -254.59375 535.1328125 C-255.81022552 533.66023687 -257.02760241 532.18829198 -258.26171875 530.73046875 C-272.74142468 513.36331414 -283.28207351 493.12620603 -293.59375 473.1328125 C-293.95017578 472.44912598 -294.30660156 471.76543945 -294.67382812 471.06103516 C-296.98278684 466.56031819 -298.87863198 462.01387032 -300.59375 457.2578125 C-301.11224438 455.84206775 -301.63177241 454.42670112 -302.15234375 453.01171875 C-302.39968262 452.33898926 -302.64702148 451.66625977 -302.90185547 450.97314453 C-303.76096222 448.68805396 -304.70398493 446.44296649 -305.65625 444.1953125 C-308.04910459 438.31287831 -309.6909259 432.19988562 -311.43359375 426.1015625 C-312.26312548 423.2146046 -313.18273787 420.39086908 -314.21875 417.5703125 C-315.91534671 412.69259696 -316.71307434 407.61468054 -317.59228516 402.53881836 C-318.22101716 398.72253744 -318.22101716 398.72253744 -319.59375 395.1328125 C-319.90495284 392.57403357 -320.10339666 390.01429638 -320.3125 387.4453125 C-320.46511047 385.11012795 -320.46511047 385.11012795 -321.59375 383.1328125 C-321.91150722 379.53156405 -322.10541573 375.92949555 -322.3125 372.3203125 C-322.38800082 369.23858737 -322.38800082 369.23858737 -323.59375 367.1328125 C-323.6908334 364.92749572 -323.72172025 362.71917095 -323.72314453 360.51171875 C-323.72489685 359.83188934 -323.72664917 359.15205994 -323.72845459 358.45162964 C-323.73286375 356.19949813 -323.72993841 353.94744484 -323.7265625 351.6953125 C-323.72723581 350.13354477 -323.72820606 348.57177714 -323.72946167 347.01000977 C-323.73093737 343.73485314 -323.72878817 340.45972377 -323.72412109 337.18457031 C-323.71842388 332.98104178 -323.72170356 328.77757709 -323.72769356 324.5740509 C-323.7313026 321.34850583 -323.730159 318.12297595 -323.72756577 314.89743042 C-323.72689745 313.3472391 -323.72772161 311.79704641 -323.73004532 310.24685669 C-323.73257745 308.08250255 -323.72872332 305.91825261 -323.72314453 303.75390625 C-323.72234894 302.5208374 -323.72155334 301.28776855 -323.72073364 300.01733398 C-323.59375 297.1328125 -323.59375 297.1328125 -322.59375 295.1328125 C-322.38814193 292.80258772 -322.22775048 290.46824952 -322.09375 288.1328125 C-321.70486111 281.35503472 -321.70486111 281.35503472 -320.59375 279.1328125 C-320.28329474 276.54137345 -320.08401088 273.94909518 -319.875 271.34765625 C-319.59375 269.1328125 -319.59375 269.1328125 -318.59375 268.1328125 C-318.40784576 266.78094932 -318.27036771 265.42230572 -318.15625 264.0625 C-317.70571181 259.66628694 -316.81593259 255.5016701 -315.59375 251.2578125 C-315.38298828 250.5145874 -315.17222656 249.7713623 -314.95507812 249.00561523 C-312.83183394 241.68380471 -310.47724198 234.43586227 -308.09375 227.1953125 C-307.72636719 226.0707666 -307.35898437 224.9462207 -306.98046875 223.78759766 C-304.90819633 217.58817137 -302.5737922 211.65351893 -299.79125977 205.73950195 C-298.64970896 203.25462164 -297.63628561 200.75385002 -296.65234375 198.203125 C-294.32846442 192.30072803 -291.50845825 186.66949929 -288.65625 181.0078125 C-288.14384766 179.97527344 -287.63144531 178.94273437 -287.10351562 177.87890625 C-284.20318042 172.09297706 -281.1296681 166.55116712 -277.59375 161.1328125 C-276.8551681 159.95803737 -276.11815242 158.78227589 -275.3828125 157.60546875 C-271.09710373 150.82829561 -266.6223958 144.38825353 -261.59375 138.1328125 C-260.56677622 136.7832967 -259.54580688 135.42918791 -258.53125 134.0703125 C-257.80228516 133.09578125 -257.80228516 133.09578125 -257.05859375 132.1015625 C-256.068339 130.77066011 -255.08144347 129.43725272 -254.09765625 128.1015625 C-251.26590945 124.27686552 -248.35665752 120.57238044 -245.21899414 116.9934082 C-244.19321082 115.81908122 -243.17438467 114.63860659 -242.16552734 113.44970703 C-237.26213748 107.72058075 -232.00767739 102.36057829 -226.6784668 97.03222656 C-225.15707442 95.50863811 -223.64389083 93.97719869 -222.13085938 92.4453125 C-217.43218224 87.72006098 -212.75208871 83.17990854 -207.27905273 79.33837891 C-205.45369839 78.03262782 -203.77976501 76.61290968 -202.09375 75.1328125 C-199.03783539 72.47188005 -195.86647909 70.02492423 -192.60546875 67.62109375 C-191.32630489 66.67476087 -190.05677088 65.71516207 -188.80078125 64.73828125 C-182.98697773 60.2384717 -176.82296119 56.30317128 -170.60351562 52.39648438 C-169.24052198 51.53948059 -167.87991288 50.67867484 -166.52148438 49.81445312 C-157.91731001 44.34910681 -149.21088231 39.26243934 -140.09375 34.6953125 C-138.89371338 34.09408569 -138.89371338 34.09408569 -137.66943359 33.48071289 C-132.0838101 30.73997346 -126.39103138 28.38536335 -120.59375 26.1328125 C-118.92650941 25.46758243 -117.25977447 24.80108242 -115.59375 24.1328125 C-114.35431641 23.63974609 -114.35431641 23.63974609 -113.08984375 23.13671875 C-111.43109374 22.46958455 -109.77731949 21.78993756 -108.12890625 21.09765625 C-102.91340803 18.93071149 -97.73067068 17.27185686 -92.265625 15.8515625 C-87.37722668 14.53655476 -82.60678342 12.86013894 -77.84765625 11.140625 C-74.04413575 9.96258384 -70.26152793 9.24838945 -66.34375 8.5703125 C-61.32606322 7.82466839 -61.32606322 7.82466839 -56.59375 6.1328125 C-54.03497107 5.82160966 -51.47523388 5.62316584 -48.90625 5.4140625 C-46.57106545 5.26145203 -46.57106545 5.26145203 -44.59375 4.1328125 C-41.51369088 3.81780645 -38.43275088 3.62197602 -35.34375 3.4140625 C-32.63509007 3.30093758 -32.63509007 3.30093758 -30.59375 2.1328125 C-28.8782218 1.99190968 -27.15791249 1.9069836 -25.4375 1.8515625 C-24.41527344 1.81417969 -23.39304687 1.77679688 -22.33984375 1.73828125 C-19.09375 1.6328125 -19.09375 1.6328125 -15.84765625 1.52734375 C-14.82542969 1.48996094 -13.80320312 1.45257813 -12.75 1.4140625 C-11.33944336 1.36862305 -11.33944336 1.36862305 -9.90039062 1.32226562 C-6.39703325 1.03452162 -3.69516892 0.00406957 0 0 Z " fill="#137EFE" transform="translate(504.59375,178.8671875)"/>
<path d="M0 0 C0.5676709 0.41604492 1.1353418 0.83208984 1.72021484 1.26074219 C24.91395778 18.39951151 46.08233737 38.40680019 64 61 C65.15048828 62.423125 65.15048828 62.423125 66.32421875 63.875 C77.26053561 77.6818799 86.63113202 92.65903499 94.99121094 108.14697266 C95.96582832 109.93723062 96.96711266 111.70967118 97.9765625 113.48046875 C110.83895993 136.34659738 127 169.34474463 127 196 C105.70941631 203.13623439 84.40361565 210.20860162 63 217 C62.28737 217.22623047 61.57473999 217.45246094 60.84051514 217.68554688 C49.66622833 221.23219577 38.48593934 224.75954788 27.30200195 228.27563477 C25.04273801 228.98655174 22.78398419 229.69906579 20.52539062 230.41210938 C17.08921828 231.49670539 13.65173921 232.57704638 10.21310425 233.65380859 C8.3554817 234.23651728 6.49913526 234.82328915 4.64282227 235.41015625 C2.98851196 235.92642578 2.98851196 235.92642578 1.30078125 236.453125 C-0.13527466 236.90413574 -0.13527466 236.90413574 -1.6003418 237.36425781 C-4 238 -4 238 -7 238 C-8.3558107 229.89610772 -9.70950535 221.79186287 -11.0625 213.6875 C-11.26597046 212.46928558 -11.46944092 211.25107117 -11.67907715 209.99594116 C-13.80471538 197.26437143 -15.92471028 184.53212813 -17.98046875 171.7890625 C-18.13278458 170.8461586 -18.2851004 169.9032547 -18.44203186 168.93177795 C-19.14161494 164.59737822 -19.83767906 160.26246349 -20.52758789 155.92651367 C-21.99663266 146.76120486 -23.61978801 137.63646772 -25.34375 128.515625 C-28.35748018 112.4895887 -30.87474591 96.39052883 -33.38421631 80.27960205 C-33.87764161 77.12021457 -34.37596481 73.96160707 -34.87426376 70.80298519 C-35.36023128 67.71904487 -35.84344586 64.63467809 -36.32581329 61.55017281 C-36.55308318 60.09857838 -36.78110212 58.64710099 -37.0099411 57.1957531 C-38.12023358 50.14323091 -39.20314992 43.12586759 -39.67999268 35.99610901 C-40.23237158 32.55053627 -41.72383659 30.61089332 -44 28 C-51.11084862 25.62971713 -58.49903757 27.60882486 -65.6875 28.875 C-67.73307292 29.2265625 -69.77864583 29.578125 -71.82421875 29.9296875 C-72.83476318 30.10733643 -73.84530762 30.28498535 -74.88647461 30.46801758 C-77.02726292 30.83379643 -79.17166187 31.17885665 -81.31860352 31.5065918 C-82.38393311 31.67070557 -83.4492627 31.83481934 -84.546875 32.00390625 C-85.50819336 32.14642822 -86.46951172 32.2889502 -87.45996094 32.43579102 C-91.65808675 33.36830435 -93.23483522 34.66762193 -96 38 C-96.9168454 40.14779525 -97.58904043 42.281016 -98.2265625 44.52734375 C-101.59369226 55.29195555 -107.33384871 62.37476278 -117 68 C-123.28520204 70.09506735 -131.31003505 70.24662388 -137.375 67.375 C-138.61050432 66.62644497 -139.82062394 65.83419282 -141 65 C-141.59167969 64.59910156 -142.18335938 64.19820313 -142.79296875 63.78515625 C-147.58725662 60.13387741 -150.35380843 55.57998145 -153.32421875 50.390625 C-155.15567636 47.77791623 -156.08965465 47.15091813 -159 46 C-167.22652021 44.99263441 -175.63276506 46.59393007 -183.74487305 47.91650391 C-185.82436812 48.25191426 -187.90668936 48.56196824 -189.99023438 48.87109375 C-191.33357599 49.08441499 -192.67668509 49.2992068 -194.01953125 49.515625 C-195.21682861 49.70415039 -196.41412598 49.89267578 -197.64770508 50.08691406 C-201.42603919 51.11604301 -203.92131547 52.60129824 -207 55 C-208.37322568 57.41477058 -208.37322568 57.41477058 -209.0625 60.125 C-212.51160109 70.72674515 -216.7928098 79.44625836 -226.5625 85.4375 C-232.89270486 88.28794312 -240.68797943 88.09247501 -247.328125 86.41015625 C-255.53775737 82.78924116 -262.79863594 75.47024794 -266.96484375 67.62890625 C-268.05466489 65.6712505 -268.05466489 65.6712505 -271 64 C-282.51295855 62.48141958 -294.17432272 65.38982024 -305.42626953 67.53027344 C-308.62629755 68.11430435 -311.84022994 68.557491 -315.0625 69 C-319.66955682 69.76448978 -322.50454861 70.87249086 -326 74 C-330.0281605 80.64367407 -327.86852687 89.10314824 -326.65234375 96.375 C-326.51679581 97.22553955 -326.38124786 98.0760791 -326.24159241 98.95239258 C-325.81348272 101.63603852 -325.37643881 104.31810559 -324.9375 107 C-324.49550861 109.71052839 -324.05561293 112.4213075 -323.62269592 115.13330078 C-323.35439697 116.8135394 -323.08080933 118.49294353 -322.80149841 120.17138672 C-322.49182923 122.10793799 -322.23969297 124.05354858 -322 126 C-323.75767405 127.75767405 -326.30834653 127.60636768 -328.69946289 127.96801758 C-329.92327164 128.1552388 -331.14708038 128.34246002 -332.40797424 128.53535461 C-333.7628639 128.73844252 -335.11775803 128.94150054 -336.47265625 129.14453125 C-337.8711101 129.35731404 -339.26950088 129.57051177 -340.66783142 129.78410339 C-344.3784487 130.34997212 -348.08975589 130.91117454 -351.80126953 131.47113037 C-355.479132 132.02636371 -359.15659328 132.58423237 -362.83398438 133.14257812 C-363.5507604 133.25138243 -364.26753643 133.36018673 -365.00603294 133.47228813 C-370.68160213 134.33475053 -376.35576483 135.20619516 -382.02910805 136.08317757 C-386.43877202 136.76379672 -390.8513046 137.42273362 -395.26513672 138.07568359 C-397.42558737 138.4076731 -399.58591541 138.74046194 -401.74609375 139.07421875 C-402.70983414 139.2114888 -403.67357452 139.34875885 -404.66651917 139.4901886 C-410.09610431 140.35095959 -413.73485246 141.46928859 -418 145 C-422.47887417 153.95774834 -417.91004277 168.19916083 -415.9375 177.5625 C-415.6140084 179.1495869 -415.29210659 180.73699855 -414.97167969 182.32470703 C-414.474699 184.78662177 -413.97682319 187.24831055 -413.47402954 189.70904541 C-412.38935266 195.02290431 -411.35253833 200.34336045 -410.36328125 205.67578125 C-410.23182205 206.38436783 -410.10036285 207.09295441 -409.96492004 207.82301331 C-409.69672031 209.27012349 -409.42861907 210.71725194 -409.16061401 212.16439819 C-406.23867306 227.89510327 -403.08356704 243.57554266 -399.875 259.25 C-395.78559321 279.23329054 -391.71525384 299.22010565 -387.69854736 319.21813965 C-387.11005433 322.14731441 -386.51960693 325.07608458 -385.9274292 328.0045166 C-385.09962499 332.09850129 -384.27801682 336.19370495 -383.45703125 340.2890625 C-383.20759262 341.51877777 -382.95815399 342.74849304 -382.70115662 344.01547241 C-382.47597855 345.14425812 -382.25080048 346.27304382 -382.01879883 347.43603516 C-381.7221508 348.91047592 -381.7221508 348.91047592 -381.41950989 350.41470337 C-381 353 -381 353 -381 357 C-408.83776883 366.03632728 -436.71672952 374.91637722 -464.70989609 383.45874786 C-466.69125029 384.06364494 -468.67227003 384.66962707 -470.65322876 385.27581787 C-474.35480931 386.40804893 -478.05807044 387.53470596 -481.76171875 388.66015625 C-482.87384735 388.99996017 -483.98597595 389.3397641 -485.13180542 389.68986511 C-486.14364899 389.99596207 -487.15549255 390.30205902 -488.19799805 390.61743164 C-489.08182663 390.88592422 -489.96565521 391.15441681 -490.87626648 391.43104553 C-493 392 -493 392 -495 392 C-505.22054625 366.29161481 -512.79006618 340.36456985 -517 313 C-517.16371094 311.98873047 -517.32742188 310.97746094 -517.49609375 309.93554688 C-524.34880691 266.24242124 -520.79325542 220.4990543 -509 178 C-508.77763672 177.16404297 -508.55527344 176.32808594 -508.32617188 175.46679688 C-496.3539618 130.61568152 -472.62917076 84.38519363 -440.37890625 50.51953125 C-438.44476612 48.47105771 -436.59949381 46.39101004 -434.76171875 44.2578125 C-430.77100449 39.67671468 -426.54726698 35.3551925 -422.25 31.0625 C-421.45577637 30.26908203 -420.66155273 29.47566406 -419.84326172 28.65820312 C-414.93056667 23.79652568 -409.97674441 19.21897354 -404.51953125 14.97265625 C-402.81016912 13.63431846 -401.14092947 12.24342454 -399.51171875 10.80859375 C-359.45796193 -24.37611015 -305.00594822 -47.24888471 -253 -57 C-252.28070313 -57.13744629 -251.56140625 -57.27489258 -250.8203125 -57.41650391 C-165.36691682 -73.36405648 -70.07758628 -51.4522511 0 0 Z " fill="#137EFE" transform="translate(705,246)"/>
<path d="M0 0 C1.66869141 -0.00193359 1.66869141 -0.00193359 3.37109375 -0.00390625 C4.53769531 -0.00003906 5.70429688 0.00382813 6.90625 0.0078125 C8.07285156 0.00394531 9.23945312 0.00007812 10.44140625 -0.00390625 C11.55386719 -0.00261719 12.66632813 -0.00132812 13.8125 0 C14.83666016 0.00112793 15.86082031 0.00225586 16.91601562 0.00341797 C19.40625 0.1328125 19.40625 0.1328125 21.40625 1.1328125 C23.04875334 1.27330882 24.69618491 1.35851332 26.34375 1.4140625 C27.80941406 1.47013672 27.80941406 1.47013672 29.3046875 1.52734375 C30.32820313 1.56214844 31.35171875 1.59695312 32.40625 1.6328125 C34.42723028 1.70153601 36.44807989 1.77425454 38.46875 1.8515625 C39.36722656 1.88185547 40.26570313 1.91214844 41.19140625 1.94335938 C43.40625 2.1328125 43.40625 2.1328125 45.40625 3.1328125 C47.73647478 3.33842057 50.07081298 3.49881202 52.40625 3.6328125 C59.18402778 4.02170139 59.18402778 4.02170139 61.40625 5.1328125 C62.705625 5.2565625 64.005 5.3803125 65.34375 5.5078125 C70.00399785 5.97233881 74.28518799 7.14509537 78.7734375 8.4453125 C81.08465803 9.04883596 83.22255122 9.40964085 85.59375 9.6328125 C89.10323726 10.09307312 91.90814899 11.00228322 95.171875 12.32421875 C97.72128465 13.24681979 100.26321647 13.84170079 102.90625 14.4453125 C109.91591006 16.14515507 116.53552347 18.65268245 123.23144531 21.28808594 C125.37196739 22.11949662 127.5232976 22.91391564 129.6796875 23.703125 C141.1425583 27.9908395 152.08167592 33.25595908 163.03125 38.6953125 C163.76776794 39.05839508 164.50428589 39.42147766 165.26312256 39.79556274 C173.00816052 43.62511731 180.4407414 47.48793076 187.40380859 52.65405273 C189.35064269 54.0917477 191.33922248 55.37596848 193.40625 56.6328125 C204.91182203 63.7256049 215.32040074 72.16988168 225.40625 81.1328125 C226.73861186 82.30058849 228.07195227 83.46724892 229.40625 84.6328125 C230.07269531 85.21804688 230.73914063 85.80328125 231.42578125 86.40625 C232.68558067 87.50453667 233.95304695 88.59413583 235.23046875 89.671875 C244.48616109 97.54988567 253.50209254 106.09040165 260.40625 116.1328125 C262.19492037 118.44077426 264.00940506 120.69109815 265.9609375 122.86328125 C269.91331451 127.26359432 273.38328761 131.81124257 276.71875 136.6953125 C278.24266502 138.89652308 279.8302735 141.01644702 281.46875 143.1328125 C284.1510836 146.68109631 286.42483158 150.37841097 288.6640625 154.21875 C290.30615569 156.96539018 292.03676369 159.64135289 293.78320312 162.32226562 C303.34901676 177.15751024 311.43479997 193.13832268 317.24609375 209.81640625 C318.2280294 212.62335362 319.30477907 215.33612197 320.46875 218.0703125 C322.86166701 223.95290015 324.5029032 230.06680283 326.25 236.1640625 C327.07706033 239.0400981 327.97021004 241.87335173 328.96875 244.6953125 C333.17529631 256.9803398 336.15680752 270.16041147 337.16015625 283.1015625 C337.29856607 285.19777004 337.29856607 285.19777004 338.40625 287.1328125 C338.6709488 290.54448598 338.85040224 293.94966746 339.01171875 297.3671875 C339.14312954 301.38032853 339.14312954 301.38032853 340.40625 305.1328125 C340.50234124 306.97594687 340.53420904 308.82257594 340.53564453 310.66821289 C340.54037277 312.40495018 340.54037277 312.40495018 340.54519653 314.17677307 C340.5431723 315.43199265 340.54114807 316.68721222 340.5390625 317.98046875 C340.54001923 319.26263779 340.54097595 320.54480682 340.54196167 321.86582947 C340.54343671 324.58024295 340.54128994 327.29462354 340.53662109 330.0090332 C340.53091822 333.49522291 340.53420754 336.98133573 340.54019356 340.46752262 C340.54466655 343.78434424 340.54153929 347.10114494 340.5390625 350.41796875 C340.54108673 351.67521255 340.54311096 352.93245636 340.54519653 354.22779846 C340.54204437 355.38247116 340.53889221 356.53714386 340.53564453 357.72680664 C340.53445114 359.25997276 340.53445114 359.25997276 340.53323364 360.82411194 C340.40625 363.1328125 340.40625 363.1328125 339.40625 364.1328125 C339.24427114 366.73947233 339.12696869 369.33614332 339.03125 371.9453125 C338.73430409 378.3978121 337.85333156 384.22846756 336.0859375 390.46484375 C335.44989199 392.96150517 335.17926395 395.19368843 335.03125 397.7578125 C334.45911895 405.02037398 332.09508873 411.95015346 330.05273438 418.90820312 C329.45869346 420.95234994 328.88750079 423.00082846 328.328125 425.0546875 C326.42734833 431.96385985 324.19654165 438.5375777 321.40625 445.1328125 C320.79997496 446.67365125 320.19587511 448.21534732 319.59375 449.7578125 C311.28247906 470.39269208 301.9469439 490.70912899 289.40625 509.1328125 C288.17101797 511.08732573 286.94153264 513.04548665 285.71875 515.0078125 C282.82455462 519.56250246 279.70529177 523.86605181 276.40625 528.1328125 C275.40415809 529.46457433 274.40417518 530.79792557 273.40625 532.1328125 C272.69927979 533.07012207 272.69927979 533.07012207 271.97802734 534.02636719 C271.00461892 535.33089777 270.04330036 536.64466455 269.10180664 537.97241211 C265.17762545 543.43186434 260.67315232 548.03462292 255.84375 552.6953125 C249.79887444 558.47935266 249.79887444 558.47935266 244.59375 565 C242.70070565 567.71110995 241.58091885 568.9003085 238.96875 570.6953125 C234.63524726 573.72958671 231.08957082 577.36375376 227.40625 581.1328125 C222.67266335 585.95626553 218.00059809 590.31288318 212.40625 594.1328125 C211.15325251 595.08722335 209.90337687 596.0457432 208.65625 597.0078125 C204.39875585 600.20093311 199.9815277 603.13425853 195.5390625 606.0625 C193.50355554 607.40766046 191.47690062 608.76634776 189.4609375 610.140625 C181.9972662 615.21592149 174.32104928 619.80533784 166.40625 624.1328125 C165.6745459 624.53290527 164.9428418 624.93299805 164.18896484 625.34521484 C135.24590814 641.0734254 104.41364738 652.8652434 71.81274414 658.18212891 C67.99436732 658.77193532 67.99436732 658.77193532 64.40625 660.1328125 C61.29355709 660.44713773 58.18007422 660.64371124 55.05859375 660.8515625 C52.48619595 660.84333248 52.48619595 660.84333248 51.40625 662.1328125 C49.94293379 662.27737436 48.47334324 662.3597726 47.00390625 662.4140625 C45.66875977 662.47013672 45.66875977 662.47013672 44.30664062 662.52734375 C43.37013672 662.56214844 42.43363281 662.59695313 41.46875 662.6328125 C39.62614241 662.70157602 37.78367711 662.77430168 35.94140625 662.8515625 C35.120354 662.88185547 34.29930176 662.91214844 33.45336914 662.94335938 C31.34162834 663.0139204 31.34162834 663.0139204 29.40625 664.1328125 C28.05857166 664.22676253 26.70641708 664.26074601 25.35546875 664.26220703 C24.10407104 664.26693527 24.10407104 664.26693527 22.82739258 664.27175903 C21.92529053 664.2697348 21.02318848 664.26771057 20.09375 664.265625 C19.16908936 664.26658173 18.24442871 664.26753845 17.29174805 664.26852417 C15.33479749 664.26920533 13.37784467 664.2673555 11.42089844 664.26318359 C8.41856836 664.25783445 5.4163879 664.26313075 2.4140625 664.26953125 C0.51562467 664.26887046 -1.38281307 664.26758927 -3.28125 664.265625 C-4.63440308 664.26866135 -4.63440308 664.26866135 -6.01489258 664.27175903 C-6.84915771 664.26860687 -7.68342285 664.26545471 -8.54296875 664.26220703 C-9.27862061 664.26141144 -10.01427246 664.26061584 -10.7722168 664.25979614 C-12.59375 664.1328125 -12.59375 664.1328125 -14.59375 663.1328125 C-16.3092782 662.99190968 -18.02958751 662.9069836 -19.75 662.8515625 C-21.28333984 662.79548828 -21.28333984 662.79548828 -22.84765625 662.73828125 C-24.45447266 662.68607422 -24.45447266 662.68607422 -26.09375 662.6328125 C-28.20847422 662.56410305 -30.32307326 662.49138706 -32.4375 662.4140625 C-33.84805664 662.36862305 -33.84805664 662.36862305 -35.28710938 662.32226562 C-37.59375 662.1328125 -37.59375 662.1328125 -39.59375 661.1328125 C-41.08954604 660.93188467 -42.59071724 660.76945184 -44.09375 660.6328125 C-48.37152778 660.24392361 -48.37152778 660.24392361 -50.59375 659.1328125 C-52.13274308 658.97834108 -53.67528275 658.85816176 -55.21875 658.7578125 C-59.35417629 658.38455769 -62.64969201 657.51401094 -66.45410156 655.91186523 C-68.57802843 655.13853677 -70.51397756 654.74882776 -72.7421875 654.390625 C-79.97389476 652.99578728 -86.88131667 650.58139848 -93.85009766 648.23950195 C-96.18984764 647.45500322 -98.53399378 646.6849242 -100.87890625 645.91601562 C-114.48770239 641.40389869 -127.58637088 636.01296708 -140.21875 629.1953125 C-141.011604 628.7720166 -141.80445801 628.3487207 -142.62133789 627.91259766 C-144.95104367 626.66260329 -147.27402868 625.40122651 -149.59375 624.1328125 C-150.25713379 623.77010254 -150.92051758 623.40739258 -151.60400391 623.03369141 C-172.67482362 611.43081712 -192.55657529 597.02828187 -210.59375 581.1328125 C-211.92660225 579.96559626 -213.25992979 578.7989225 -214.59375 577.6328125 C-215.25632812 577.05144531 -215.91890625 576.47007812 -216.6015625 575.87109375 C-217.90239967 574.73604956 -219.20946029 573.60808773 -220.5234375 572.48828125 C-228.07642578 566.01212463 -235.06314081 559.42872629 -240.59375 551.1328125 C-242.23804829 549.44407371 -243.90759218 547.77975735 -245.59375 546.1328125 C-249.13714084 542.66724137 -251.99226752 539.37226543 -254.59375 535.1328125 C-255.81022552 533.66023687 -257.02760241 532.18829198 -258.26171875 530.73046875 C-272.74142468 513.36331414 -283.28207351 493.12620603 -293.59375 473.1328125 C-293.95017578 472.44912598 -294.30660156 471.76543945 -294.67382812 471.06103516 C-296.98278684 466.56031819 -298.87863198 462.01387032 -300.59375 457.2578125 C-301.11224438 455.84206775 -301.63177241 454.42670112 -302.15234375 453.01171875 C-302.39968262 452.33898926 -302.64702148 451.66625977 -302.90185547 450.97314453 C-303.76096222 448.68805396 -304.70398493 446.44296649 -305.65625 444.1953125 C-308.04910459 438.31287831 -309.6909259 432.19988562 -311.43359375 426.1015625 C-312.26312548 423.2146046 -313.18273787 420.39086908 -314.21875 417.5703125 C-315.91534671 412.69259696 -316.71307434 407.61468054 -317.59228516 402.53881836 C-318.22101716 398.72253744 -318.22101716 398.72253744 -319.59375 395.1328125 C-319.90495284 392.57403357 -320.10339666 390.01429638 -320.3125 387.4453125 C-320.46511047 385.11012795 -320.46511047 385.11012795 -321.59375 383.1328125 C-321.91150722 379.53156405 -322.10541573 375.92949555 -322.3125 372.3203125 C-322.38800082 369.23858737 -322.38800082 369.23858737 -323.59375 367.1328125 C-323.6908334 364.92749572 -323.72172025 362.71917095 -323.72314453 360.51171875 C-323.72489685 359.83188934 -323.72664917 359.15205994 -323.72845459 358.45162964 C-323.73286375 356.19949813 -323.72993841 353.94744484 -323.7265625 351.6953125 C-323.72723581 350.13354477 -323.72820606 348.57177714 -323.72946167 347.01000977 C-323.73093737 343.73485314 -323.72878817 340.45972377 -323.72412109 337.18457031 C-323.71842388 332.98104178 -323.72170356 328.77757709 -323.72769356 324.5740509 C-323.7313026 321.34850583 -323.730159 318.12297595 -323.72756577 314.89743042 C-323.72689745 313.3472391 -323.72772161 311.79704641 -323.73004532 310.24685669 C-323.73257745 308.08250255 -323.72872332 305.91825261 -323.72314453 303.75390625 C-323.72234894 302.5208374 -323.72155334 301.28776855 -323.72073364 300.01733398 C-323.59375 297.1328125 -323.59375 297.1328125 -322.59375 295.1328125 C-322.38814193 292.80258772 -322.22775048 290.46824952 -322.09375 288.1328125 C-321.70486111 281.35503472 -321.70486111 281.35503472 -320.59375 279.1328125 C-320.28329474 276.54137345 -320.08401088 273.94909518 -319.875 271.34765625 C-319.59375 269.1328125 -319.59375 269.1328125 -318.59375 268.1328125 C-318.40784576 266.78094932 -318.27036771 265.42230572 -318.15625 264.0625 C-317.70571181 259.66628694 -316.81593259 255.5016701 -315.59375 251.2578125 C-315.38298828 250.5145874 -315.17222656 249.7713623 -314.95507812 249.00561523 C-312.83183394 241.68380471 -310.47724198 234.43586227 -308.09375 227.1953125 C-307.72636719 226.0707666 -307.35898437 224.9462207 -306.98046875 223.78759766 C-304.90819633 217.58817137 -302.5737922 211.65351893 -299.79125977 205.73950195 C-298.64970896 203.25462164 -297.63628561 200.75385002 -296.65234375 198.203125 C-294.32846442 192.30072803 -291.50845825 186.66949929 -288.65625 181.0078125 C-288.14384766 179.97527344 -287.63144531 178.94273437 -287.10351562 177.87890625 C-284.20318042 172.09297706 -281.1296681 166.55116712 -277.59375 161.1328125 C-276.8551681 159.95803737 -276.11815242 158.78227589 -275.3828125 157.60546875 C-271.09710373 150.82829561 -266.6223958 144.38825353 -261.59375 138.1328125 C-260.56677622 136.7832967 -259.54580688 135.42918791 -258.53125 134.0703125 C-257.80228516 133.09578125 -257.80228516 133.09578125 -257.05859375 132.1015625 C-256.068339 130.77066011 -255.08144347 129.43725272 -254.09765625 128.1015625 C-251.26590945 124.27686552 -248.35665752 120.57238044 -245.21899414 116.9934082 C-244.19321082 115.81908122 -243.17438467 114.63860659 -242.16552734 113.44970703 C-237.26213748 107.72058075 -232.00767739 102.36057829 -226.6784668 97.03222656 C-225.15707442 95.50863811 -223.64389083 93.97719869 -222.13085938 92.4453125 C-217.43218224 87.72006098 -212.75208871 83.17990854 -207.27905273 79.33837891 C-205.45369839 78.03262782 -203.77976501 76.61290968 -202.09375 75.1328125 C-199.03783539 72.47188005 -195.86647909 70.02492423 -192.60546875 67.62109375 C-191.32630489 66.67476087 -190.05677088 65.71516207 -188.80078125 64.73828125 C-182.98697773 60.2384717 -176.82296119 56.30317128 -170.60351562 52.39648438 C-169.24052198 51.53948059 -167.87991288 50.67867484 -166.52148438 49.81445312 C-157.91731001 44.34910681 -149.21088231 39.26243934 -140.09375 34.6953125 C-138.89371338 34.09408569 -138.89371338 34.09408569 -137.66943359 33.48071289 C-132.0838101 30.73997346 -126.39103138 28.38536335 -120.59375 26.1328125 C-118.92650941 25.46758243 -117.25977447 24.80108242 -115.59375 24.1328125 C-114.35431641 23.63974609 -114.35431641 23.63974609 -113.08984375 23.13671875 C-111.43109374 22.46958455 -109.77731949 21.78993756 -108.12890625 21.09765625 C-102.91340803 18.93071149 -97.73067068 17.27185686 -92.265625 15.8515625 C-87.37722668 14.53655476 -82.60678342 12.86013894 -77.84765625 11.140625 C-74.04413575 9.96258384 -70.26152793 9.24838945 -66.34375 8.5703125 C-61.32606322 7.82466839 -61.32606322 7.82466839 -56.59375 6.1328125 C-54.03497107 5.82160966 -51.47523388 5.62316584 -48.90625 5.4140625 C-46.57106545 5.26145203 -46.57106545 5.26145203 -44.59375 4.1328125 C-41.51369088 3.81780645 -38.43275088 3.62197602 -35.34375 3.4140625 C-32.63509007 3.30093758 -32.63509007 3.30093758 -30.59375 2.1328125 C-28.8782218 1.99190968 -27.15791249 1.9069836 -25.4375 1.8515625 C-24.41527344 1.81417969 -23.39304687 1.77679688 -22.33984375 1.73828125 C-19.09375 1.6328125 -19.09375 1.6328125 -15.84765625 1.52734375 C-14.82542969 1.48996094 -13.80320312 1.45257813 -12.75 1.4140625 C-11.33944336 1.36862305 -11.33944336 1.36862305 -9.90039062 1.32226562 C-6.39703325 1.03452162 -3.69516892 0.00406957 0 0 Z M-56.59375 11.1328125 C-57.56570313 11.33358398 -58.53765625 11.53435547 -59.5390625 11.74121094 C-111.75046685 22.80034978 -160.48858595 46.08865822 -201.59375 80.1328125 C-202.57859375 80.93203125 -203.5634375 81.73125 -204.578125 82.5546875 C-212.24214955 88.8739447 -219.36360734 95.6935111 -226.40625 102.6953125 C-227.27741455 103.55729248 -228.1485791 104.41927246 -229.04614258 105.30737305 C-234.21794913 110.50377211 -238.99719984 115.88368572 -243.57421875 121.61132812 C-245.59826164 124.13844551 -247.6810855 126.60632363 -249.78125 129.0703125 C-261.21734099 143.10097911 -270.91089719 158.27904643 -279.59375 174.1328125 C-280.07553711 174.99680664 -280.55732422 175.86080078 -281.05371094 176.75097656 C-314.81643137 237.53265999 -328.06047564 311.38397138 -316.59375 380.1328125 C-316.39507324 381.34855957 -316.19639648 382.56430664 -315.99169922 383.81689453 C-311.62348427 409.83313202 -304.45332959 434.66741952 -294.59375 459.1328125 C-286.66593846 457.22686853 -278.86034385 455.07856053 -271.078125 452.6484375 C-270.00307205 452.3155925 -268.9280191 451.9827475 -267.82038879 451.63981628 C-264.32717484 450.55734521 -260.83544545 449.47017076 -257.34375 448.3828125 C-254.91405462 447.62875075 -252.48428477 446.87492893 -250.05444336 446.12133789 C-242.56584404 443.79728345 -235.07945227 441.46617941 -227.59375 439.1328125 C-226.38607971 438.75638611 -225.17840942 438.37995972 -223.93414307 437.99212646 C-209.15063924 433.3831267 -194.37062202 428.76302839 -179.59375 424.1328125 C-179.53465958 424.71085129 -179.47556915 425.28889008 -179.41468811 425.88444519 C-178.93561012 430.40460691 -178.35306126 434.84697784 -177.46484375 439.30859375 C-177.23845215 440.44876953 -177.01206055 441.58894531 -176.77880859 442.76367188 C-176.53211426 443.97861328 -176.28541992 445.19355469 -176.03125 446.4453125 C-175.77166504 447.73115234 -175.51208008 449.01699219 -175.24462891 450.34179688 C-173.08639762 460.96046776 -170.80001658 471.55094104 -168.46875 482.1328125 C-168.30502899 482.8817276 -168.14130798 483.6306427 -167.97262573 484.4022522 C-163.79504557 503.46431229 -159.82227364 519.85392241 -145.59375 534.1328125 C-145.04074219 534.70902344 -144.48773438 535.28523437 -143.91796875 535.87890625 C-132.02441707 547.24123229 -115.97951402 548.86507518 -100.41015625 548.56640625 C-91.93371817 548.18419855 -84.13537027 546.23253678 -75.97265625 544.046875 C-66.59083179 541.5416901 -57.09119261 539.5823225 -47.59375 537.5703125 C-45.74616253 537.17689835 -43.8985876 536.78342535 -42.05102539 536.38989258 C-26.49479825 533.08376746 -10.91755257 529.90119205 4.70703125 526.93359375 C6.87764766 526.52106213 9.04822017 526.10829945 11.21875 525.6953125 C12.29850098 525.48986816 13.37825195 525.28442383 14.49072266 525.07275391 C23.37769965 523.36559877 32.21752758 521.46936217 41.05935669 519.54397583 C49.60657844 517.69843947 58.17182421 515.9824834 66.75832558 514.33139229 C70.69770892 513.57344598 74.63598064 512.80976966 78.57421875 512.04589844 C79.38755078 511.88816232 80.20088282 511.7304262 81.03886127 511.56791019 C89.68365914 509.88880631 98.32115841 508.1735637 106.95703125 506.44921875 C107.72173925 506.29655107 108.48644726 506.1438834 109.27432823 505.98658943 C122.9146921 503.26224273 136.55217816 500.52347645 150.18919373 497.78242493 C158.01422223 496.21020828 165.84091675 494.64760428 173.67262268 493.10890198 C177.34503093 492.38638908 181.01578905 491.65577167 184.68612671 490.92282104 C186.26460712 490.609758 187.84387533 490.30063558 189.42398071 489.99588013 C201.11140369 487.7399398 210.36966806 485.43571232 217.40625 475.1328125 C218.72461379 472.46710988 219.54421821 470.00625181 220.40625 467.1328125 C220.59936768 466.51253174 220.79248535 465.89225098 220.99145508 465.25317383 C222.85370187 455.7336839 219.56072709 444.8596401 217.71154785 435.45877075 C214.53785007 419.27169353 211.67122911 403.03370405 208.90234375 386.7734375 C208.74913477 385.87380972 208.59592579 384.97418194 208.43807411 384.04729271 C206.87814763 374.88023862 205.32714062 365.71168894 203.78156757 356.54220486 C203.04899591 352.1983856 202.31436961 347.85491693 201.578125 343.51171875 C201.43778021 342.68371073 201.29743542 341.85570271 201.15283775 341.00260353 C199.11404523 329.00181405 196.95044024 317.03849296 194.40625 305.1328125 C195.02193848 304.97208252 195.63762695 304.81135254 196.27197266 304.64575195 C203.78854824 302.64339113 211.20492647 300.36017801 218.61752319 298.00714111 C222.46625797 296.7854429 226.31715332 295.57058978 230.16796875 294.35546875 C230.98894547 294.09626648 231.80992218 293.83706421 232.65577698 293.57000732 C238.86489581 291.61216932 245.08117738 289.67815174 251.30078125 287.75390625 C270.26742912 281.8840726 289.21154197 275.95720814 308.09375 269.8203125 C308.9653476 269.53746399 309.83694519 269.25461548 310.73495483 268.9631958 C313.17166718 268.17162511 315.60752126 267.37748398 318.04296875 266.58203125 C319.12547913 266.22994347 319.12547913 266.22994347 320.2298584 265.8707428 C323.88843466 264.67834136 323.88843466 264.67834136 327.40625 263.1328125 C322.12352802 208.15337262 287.13959952 153.56398907 251.40625 113.1328125 C250.92430176 112.58625 250.44235352 112.0396875 249.94580078 111.4765625 C241.95031569 102.46573474 233.37116641 94.1742316 224.40625 86.1328125 C223.86387695 85.64570801 223.32150391 85.15860352 222.76269531 84.65673828 C201.62870467 65.84682823 177.57527049 51.79836375 152.40625 39.1328125 C151.29564209 38.56651123 151.29564209 38.56651123 150.16259766 37.98876953 C87.82444769 6.36667725 11.6638408 -3.04908559 -56.59375 11.1328125 Z " fill="#FED330" transform="translate(504.59375,178.8671875)"/>
<path d="M0 0 C4.83454329 3.89449321 5.67145818 8.1524878 6.36698914 14.0486145 C6.46889053 14.99936859 6.57079193 15.95012268 6.67578125 16.9296875 C6.92373134 19.01434 7.17466737 21.09863902 7.42822266 23.18261719 C7.55972717 24.27151245 7.69123169 25.36040771 7.82672119 26.4822998 C8.5262257 31.98574106 9.37293267 37.46459612 10.23046875 42.9453125 C10.40595245 44.0680809 10.58143616 45.1908493 10.76223755 46.34764099 C11.31715237 49.87815782 11.87677324 53.40790185 12.4375 56.9375 C12.6331958 58.17505035 12.8288916 59.41260071 13.03051758 60.68765259 C15.89698313 78.78793483 18.95936026 96.84320186 22.22265625 114.87573242 C24.92200693 129.81300713 27.45341218 144.77550421 29.9375 159.75 C30.1306781 160.91332855 30.3238562 162.0766571 30.52288818 163.27523804 C32.43614029 174.80170845 34.34158585 186.32944371 36.22045898 197.86157227 C36.43797088 199.17865874 36.65627 200.49561527 36.875 201.8125 C37.11740921 203.276306 37.11740921 203.276306 37.36471558 204.76968384 C38.81618892 213.43864616 40.39817876 222.0787227 42.01288223 230.71825409 C44.73463319 245.30788821 47.33675415 259.91484627 49.8203125 274.546875 C49.96675327 275.40928299 50.11319405 276.27169098 50.26407242 277.16023254 C51.45551485 284.18275955 52.64044219 291.20638279 53.8248291 298.23010254 C54.86176459 304.37790924 55.90206212 310.52513685 56.9453125 316.671875 C57.08741402 317.51107986 57.22951553 318.35028473 57.37592316 319.21492004 C59.34878429 330.84757927 61.43613631 342.44636239 63.82229614 354.00286865 C65.77498133 363.68254744 66.05326769 372.19711922 60.9609375 381.0546875 C55.20556699 389.21069384 48.76809412 392.44948487 39.21508789 394.34082031 C38.2522416 394.54516315 37.28939531 394.749506 36.29737186 394.96004105 C33.28482866 395.59459056 30.26812117 396.20509941 27.25 396.8125 C25.41249121 397.19229741 23.57515488 397.57293033 21.73800659 397.95446777 C16.10024313 399.11676454 10.45487481 400.23932459 4.80859375 401.359375 C2.70576398 401.77881421 0.6029872 402.19851916 -1.4997406 402.61846924 C-6.99726175 403.71570915 -12.49546315 404.80950025 -17.99383545 405.90246582 C-23.43704805 406.98504175 -28.87963867 408.07073432 -34.32226562 409.15625 C-41.84849415 410.65706264 -49.37492116 412.15687221 -56.90161705 413.65533924 C-72.10992199 416.68321848 -87.31590845 419.72262599 -102.52113342 422.76593018 C-104.23536024 423.10901626 -105.94958852 423.45209501 -107.66381836 423.79516602 C-108.49038594 423.96058993 -109.31695353 424.12601385 -110.16856861 424.29645061 C-117.26459431 425.71620529 -124.36143007 427.13188523 -131.45854855 428.54616642 C-148.43354835 431.92909184 -165.39714788 435.35942144 -182.34082031 438.89648438 C-186.72526714 439.80934421 -191.11211013 440.71044564 -195.4989624 441.61166382 C-199.79851811 442.49565802 -204.0972984 443.38338939 -208.39599609 444.27154541 C-210.51873876 444.70934303 -212.641778 445.14570549 -214.76513672 445.58050537 C-217.7791835 446.19802119 -220.79225793 446.81995699 -223.8046875 447.4453125 C-224.76455063 447.64438202 -225.72441376 447.84345154 -226.71336365 448.04855347 C-232.18017031 449.20377925 -237.53224063 450.54426796 -242.90234375 452.0859375 C-249.49852141 453.90440741 -255.61391673 454.43656515 -262.4375 454.3125 C-263.52111816 454.30041504 -264.60473633 454.28833008 -265.72119141 454.27587891 C-273.33512784 454.08630602 -279.87261186 453.26743987 -286.75 449.8125 C-287.66136719 449.41160156 -288.57273437 449.01070312 -289.51171875 448.59765625 C-304.33801084 441.46366633 -312.81714188 428.60701828 -318.48339844 413.6484375 C-320.94490515 406.54379174 -322.22809201 399.10956242 -323.6875 391.75 C-324.03330758 390.05045575 -324.38033047 388.35115836 -324.72851562 386.65209961 C-325.42202512 383.26467465 -326.11091049 379.87636379 -326.79638672 376.48730469 C-328.05842137 370.27108762 -329.40253255 364.07316465 -330.75 357.875 C-333.31860998 345.9696687 -335.76657287 334.0407388 -338.20111084 322.10745239 C-340.39700808 311.34536239 -342.63559205 300.59406758 -344.93746948 289.85415649 C-347.55470859 277.64128677 -350.01652451 265.40742622 -352.34692383 253.13598633 C-353.75868932 245.76220892 -355.24100074 238.40871123 -356.80859375 231.06640625 C-356.99040192 230.21416977 -357.17221008 229.36193329 -357.35952759 228.48387146 C-357.5444577 227.61722366 -357.72938782 226.75057587 -357.91992188 225.85766602 C-362.26007937 205.51631978 -366.1470794 185.12369199 -369.7434082 164.63745117 C-370.09701998 162.62676433 -370.45077546 160.61610276 -370.8046875 158.60546875 C-370.97221527 157.65068634 -371.13974304 156.69590393 -371.31234741 155.71218872 C-372.25656341 150.38987741 -373.30385416 145.11168048 -374.48046875 139.8359375 C-375.49897996 135.21963617 -376.18191896 130.97713782 -376.1875 126.25 C-376.20683594 125.13496094 -376.22617187 124.01992188 -376.24609375 122.87109375 C-375.60820706 118.93829628 -374.71629304 117.48627724 -371.75 114.8125 C-364.43246588 111.40464577 -356.21959252 110.60041953 -348.3203125 109.4375 C-346.92126855 109.22548353 -345.52233453 109.01274061 -344.12350464 108.79931641 C-340.45268709 108.24113836 -336.7805271 107.69235933 -333.10797119 107.14575195 C-329.43315002 106.59731616 -325.75957612 106.04066743 -322.0859375 105.484375 C-317.83118544 104.84053937 -313.57634406 104.19734361 -309.32086182 103.55834961 C-299.12242913 102.02657236 -288.93233329 100.44778904 -278.75 98.8125 C-278.93175781 97.67820557 -279.11351562 96.54391113 -279.30078125 95.37524414 C-279.97870367 91.13268766 -280.64741653 86.88872068 -281.31347656 82.64428711 C-281.60201409 80.81381664 -281.89298733 78.98372828 -282.18652344 77.15405273 C-282.61006452 74.5112428 -283.02458126 71.86714412 -283.4375 69.22265625 C-283.63436401 68.01271751 -283.63436401 68.01271751 -283.83520508 66.77833557 C-285.86457252 53.5989313 -285.86457252 53.5989313 -283.625 48 C-279.30955063 42.96530907 -274.3819888 41.13128975 -268 40.109375 C-266.89724731 39.91810028 -266.89724731 39.91810028 -265.7722168 39.72296143 C-264.22025797 39.45739107 -262.66706517 39.1989435 -261.11279297 38.94726562 C-258.78106987 38.56755953 -256.45534674 38.1606935 -254.12890625 37.75 C-230.05486157 33.63269769 -230.05486157 33.63269769 -223.8125 37.75 C-223.131875 38.760625 -222.45125 39.77125 -221.75 40.8125 C-216.17126813 48.48504898 -210.11320641 55.85715166 -200.75 58.8125 C-193.16944762 59.68224937 -186.21069823 59.731007 -179.7109375 55.41796875 C-172.22602265 49.2898811 -168.9348579 42.61243209 -166.01953125 33.5390625 C-164.44759983 28.86669175 -163.02893213 26.3409599 -158.75 23.8125 C-152.31839904 21.64533011 -145.69255053 20.71653681 -139 19.6875 C-137.32550781 19.41486328 -137.32550781 19.41486328 -135.6171875 19.13671875 C-118.23644314 16.4425008 -118.23644314 16.4425008 -111.7578125 18.98828125 C-109.40165448 21.12899292 -108.13371504 23.19979328 -106.625 26 C-102.48881029 32.86024417 -96.43931532 38.24939489 -88.75 40.8125 C-80.6910842 41.48499503 -74.60971947 41.17343535 -67.75 36.8125 C-66.71552734 36.37550781 -66.71552734 36.37550781 -65.66015625 35.9296875 C-63.2745611 34.53443144 -62.8264691 33.31960118 -61.75 30.8125 C-60.9465896 29.59810409 -60.13372681 28.38991932 -59.3125 27.1875 C-57.32669581 24.08756729 -56.22328439 21.31181752 -55.3125 17.75 C-53.95532876 12.77370547 -51.78623033 9.0861246 -47.75 5.8125 C-43.96708966 4.05935199 -40.43340406 3.33443996 -36.3125 2.77734375 C-35.08789062 2.60783203 -33.86328125 2.43832031 -32.6015625 2.26367188 C-31.33054687 2.09416016 -30.05953125 1.92464844 -28.75 1.75 C-26.22900759 1.40611209 -23.70816768 1.06110389 -21.1875 0.71484375 C-20.07246094 0.56523193 -18.95742188 0.41562012 -17.80859375 0.26147461 C-15.88690024 -0.02061306 -13.97042053 -0.34459321 -12.06640625 -0.72827148 C-7.73931512 -1.58611912 -4.08776897 -1.76517296 0 0 Z M-22.2890625 25.6875 C-25.95415238 25.83595934 -28.41628178 26.23403493 -31.75 27.8125 C-33.86364526 30.96436185 -35.32064044 33.96826786 -36.81762695 37.42944336 C-42.10184521 49.57406501 -51.57269367 57.81119444 -63.6796875 63.08984375 C-76.77385994 68.07556523 -88.70720561 68.17931527 -101.75 62.8125 C-109.83893942 58.7301303 -119.59498235 52.12253531 -123.75 43.8125 C-126.77648748 43.7132709 -129.72727838 43.70826822 -132.75 43.8125 C-134.18859375 43.85890625 -134.18859375 43.85890625 -135.65625 43.90625 C-138.65528183 44.19647889 -140.99939194 44.57087462 -143.75 45.8125 C-145.31113822 48.15193162 -146.00305559 50.32281447 -146.80078125 53.015625 C-148.45906845 57.90177164 -151.65031692 61.74328135 -154.75 65.8125 C-155.8946875 67.3903125 -155.8946875 67.3903125 -157.0625 69 C-166.04584893 78.40117911 -177.59246467 83.76570086 -190.57373047 84.10498047 C-203.79344503 84.22658879 -217.18776886 81.24863272 -227.47265625 72.31640625 C-228.58713248 71.169438 -229.67250064 69.99427349 -230.75 68.8125 C-231.41 68.8125 -232.07 68.8125 -232.75 68.8125 C-233.018125 68.235 -233.28625 67.6575 -233.5625 67.0625 C-234.76719859 64.7799132 -236.15798115 62.8387058 -237.75 60.8125 C-244.42713514 61.74419328 -251.08753638 62.78184585 -257.75 63.8125 C-256.27317144 76.71556278 -254.24656683 89.50197584 -252.125 102.3125 C-251.76935991 104.47157009 -251.41389474 106.630669 -251.05859375 108.78979492 C-250.32327954 113.25391194 -249.58577353 117.7176596 -248.84667969 122.18115234 C-247.96732085 127.49325889 -247.0939322 132.80632159 -246.22279358 138.11978149 C-241.1223426 169.20930511 -235.69601352 200.23171821 -229.7734375 231.17578125 C-224.67446657 257.87329544 -219.94690867 284.62824974 -215.32417679 311.41176987 C-214.81596511 314.35493283 -214.30674403 317.2979197 -213.79733276 320.24087524 C-212.98434212 324.94004332 -212.17481516 329.63979619 -211.36794662 334.34001923 C-211.06799739 336.08542701 -210.76718926 337.83068746 -210.4654274 339.57578278 C-205.36445717 369.10055127 -205.36445717 369.10055127 -205.4375 383.8125 C-205.43951416 384.93172852 -205.44152832 386.05095703 -205.44360352 387.20410156 C-205.54731652 395.78681819 -206.63176429 403.51516217 -208.75 411.8125 C-209.10197126 413.80930428 -209.4410145 415.80859405 -209.75 417.8125 C-203.21862846 417.09599662 -196.84944298 415.90423741 -190.4140625 414.58984375 C-188.77028877 414.25820221 -188.77028877 414.25820221 -187.0933075 413.91986084 C-184.74195329 413.44540361 -182.39084008 412.96975079 -180.03994751 412.49301147 C-161.40180416 408.71441592 -142.75275845 405.01181841 -124.0625 401.5 C-111.48658106 399.13534273 -98.96176517 396.63379807 -86.4621582 393.8894043 C-77.63868417 391.96427072 -68.77963722 390.31105194 -59.89306641 388.70629883 C-50.60136399 387.01130963 -41.3785269 385.05451436 -32.15136719 383.04077148 C-24.45373759 381.36874538 -16.74191403 379.82709481 -9 378.375 C1.28798387 376.43772019 11.52283259 374.29488324 21.75 372.0625 C22.81994202 371.83024216 22.81994202 371.83024216 23.91149902 371.59329224 C25.93131184 371.153985 27.95018807 370.71064052 29.96875 370.265625 C31.13341797 370.00942383 32.29808594 369.75322266 33.49804688 369.48925781 C36.18943593 368.93473279 36.18943593 368.93473279 38.25 367.8125 C38.58869886 359.86485916 37.55620349 352.44010083 36.16015625 344.62890625 C35.94029053 343.36009613 35.7204248 342.09128601 35.49389648 340.7840271 C34.89968993 337.35626162 34.29516745 333.93039169 33.68855667 330.5048027 C33.05576997 326.92100552 32.43264378 323.33552856 31.80834961 319.75024414 C30.54149033 312.48481402 29.26327235 305.22142055 27.98144531 297.95861816 C27.28919001 294.03620898 26.59935228 290.11337767 25.91015625 286.19042969 C24.02255522 275.44709857 22.12843249 264.70496545 20.22265625 253.96484375 C17.3563536 237.8004957 14.52359515 221.63059475 11.84124756 205.43460083 C11.4800053 203.25432194 11.11732488 201.07428561 10.75439453 198.89428711 C9.41381288 190.8384221 8.07924478 182.78157622 6.74890137 174.72401428 C6.04851846 170.48486857 5.34609294 166.24606245 4.64343262 162.0072937 C4.3040194 159.95660891 3.96552352 157.90577203 3.62805176 155.85476685 C1.93994605 145.59640051 0.19554619 135.35866194 -1.78515625 125.15234375 C-3.77146386 114.90573169 -5.45161678 104.62394023 -7.0625 94.3125 C-7.357908 92.43778669 -7.65356816 90.56311311 -7.94946289 88.68847656 C-8.88839064 82.73066112 -9.81983461 76.77168888 -10.75 70.8125 C-10.91407349 69.76215576 -11.07814697 68.71181152 -11.24719238 67.62963867 C-13.42418285 53.69204667 -15.59150786 39.75296832 -17.75 25.8125 C-19.26359445 25.8125 -20.77729895 25.76192528 -22.2890625 25.6875 Z " fill="#00192C" transform="translate(660.75,273.1875)"/>
<path d="M0 0 C0.13843826 0.79606155 0.27687653 1.59212311 0.41950989 2.41230774 C2.21178504 12.71331506 4.00999176 23.01327861 5.8125 33.3125 C5.95837177 34.14606647 6.10424355 34.97963295 6.25453568 35.83845901 C10.34974139 59.23051134 14.54445004 82.5994463 18.9375 105.9375 C22.03678211 122.4066372 25.08685732 138.87585989 27.86499023 155.40234375 C28.09091536 156.74610514 28.31690854 158.08985508 28.54296875 159.43359375 C28.65551498 160.10276825 28.76806122 160.77194275 28.88401794 161.46139526 C30.35433593 170.15857133 31.92351416 178.8382843 33.47866821 187.52059937 C34.503628 193.25534625 35.51748353 198.99206642 36.53157043 204.72874451 C37.32583579 209.21700011 38.1256336 213.70407608 38.94140625 218.18847656 C48.89104969 272.94010833 48.89104969 272.94010833 35.4375 293.01953125 C34.7259375 293.99986328 34.7259375 293.99986328 34 295 C33.34 295.94875 32.68 296.8975 32 297.875 C27.27645717 302.89376425 21.79954249 305.53122528 14.9921875 306.37109375 C5.17097444 306.58031759 -3.13034874 304.34216568 -10.9375 298.1875 C-17.71970287 291.50207451 -20.1400449 284.14056419 -22.1875 275 C-22.47157715 273.78030518 -22.7556543 272.56061035 -23.04833984 271.30395508 C-27.06563916 253.8879853 -30.58762141 236.35420661 -34.181427 218.84721375 C-36.98650916 205.183037 -39.84230471 191.52943477 -42.70019531 177.8762207 C-51.75001801 134.6375329 -60.63707204 91.37759316 -69 48 C-69.18389282 47.04810791 -69.36778564 46.09621582 -69.55725098 45.11547852 C-70.63062782 39.55786518 -71.6950426 33.99863733 -72.75 28.4375 C-73.11085693 26.54680786 -73.11085693 26.54680786 -73.47900391 24.61791992 C-73.7910376 22.94886597 -73.7910376 22.94886597 -74.109375 21.24609375 C-74.37186035 19.84895142 -74.37186035 19.84895142 -74.63964844 18.42358398 C-75 16 -75 16 -75 12 C-65.81248938 10.43151851 -56.62438345 8.86658572 -47.43549728 7.30618286 C-43.16877535 6.58151837 -38.90226878 5.85563219 -34.63623047 5.12695312 C-30.51945031 4.42381499 -26.40213609 3.72388721 -22.28443146 3.02618408 C-20.71336664 2.75940265 -19.14249787 2.49146406 -17.57183075 2.22235107 C-15.37228783 1.84569171 -13.17208454 1.47314849 -10.97167969 1.1015625 C-9.71925476 0.88838379 -8.46682983 0.67520508 -7.17645264 0.45556641 C-4 0 -4 0 0 0 Z " fill="#FDD330" transform="translate(387,397)"/>
<path d="M0 0 C1.66869141 -0.00193359 1.66869141 -0.00193359 3.37109375 -0.00390625 C4.53769531 -0.00003906 5.70429688 0.00382813 6.90625 0.0078125 C8.07285156 0.00394531 9.23945312 0.00007812 10.44140625 -0.00390625 C11.55386719 -0.00261719 12.66632813 -0.00132812 13.8125 0 C14.83666016 0.00112793 15.86082031 0.00225586 16.91601562 0.00341797 C19.40625 0.1328125 19.40625 0.1328125 21.40625 1.1328125 C23.04875334 1.27330882 24.69618491 1.35851332 26.34375 1.4140625 C27.80941406 1.47013672 27.80941406 1.47013672 29.3046875 1.52734375 C30.32820313 1.56214844 31.35171875 1.59695312 32.40625 1.6328125 C34.42723028 1.70153601 36.44807989 1.77425454 38.46875 1.8515625 C39.36722656 1.88185547 40.26570313 1.91214844 41.19140625 1.94335938 C43.40625 2.1328125 43.40625 2.1328125 45.40625 3.1328125 C47.73647478 3.33842057 50.07081298 3.49881202 52.40625 3.6328125 C59.18402778 4.02170139 59.18402778 4.02170139 61.40625 5.1328125 C62.705625 5.2565625 64.005 5.3803125 65.34375 5.5078125 C70.00399785 5.97233881 74.28518799 7.14509537 78.7734375 8.4453125 C81.08465803 9.04883596 83.22255122 9.40964085 85.59375 9.6328125 C89.10323726 10.09307312 91.90814899 11.00228322 95.171875 12.32421875 C97.72128465 13.24681979 100.26321647 13.84170079 102.90625 14.4453125 C109.91591006 16.14515507 116.53552347 18.65268245 123.23144531 21.28808594 C125.37196739 22.11949662 127.5232976 22.91391564 129.6796875 23.703125 C141.1425583 27.9908395 152.08167592 33.25595908 163.03125 38.6953125 C163.76776794 39.05839508 164.50428589 39.42147766 165.26312256 39.79556274 C173.00816052 43.62511731 180.4407414 47.48793076 187.40380859 52.65405273 C189.35064269 54.0917477 191.33922248 55.37596848 193.40625 56.6328125 C204.91182203 63.7256049 215.32040074 72.16988168 225.40625 81.1328125 C226.73861186 82.30058849 228.07195227 83.46724892 229.40625 84.6328125 C230.07269531 85.21804688 230.73914063 85.80328125 231.42578125 86.40625 C232.68558067 87.50453667 233.95304695 88.59413583 235.23046875 89.671875 C244.48616109 97.54988567 253.50209254 106.09040165 260.40625 116.1328125 C262.19492037 118.44077426 264.00940506 120.69109815 265.9609375 122.86328125 C269.91331451 127.26359432 273.38328761 131.81124257 276.71875 136.6953125 C278.24266502 138.89652308 279.8302735 141.01644702 281.46875 143.1328125 C284.1510836 146.68109631 286.42483158 150.37841097 288.6640625 154.21875 C290.30615569 156.96539018 292.03676369 159.64135289 293.78320312 162.32226562 C303.34901676 177.15751024 311.43479997 193.13832268 317.24609375 209.81640625 C318.2280294 212.62335362 319.30477907 215.33612197 320.46875 218.0703125 C322.86166701 223.95290015 324.5029032 230.06680283 326.25 236.1640625 C327.07706033 239.0400981 327.97021004 241.87335173 328.96875 244.6953125 C333.17529631 256.9803398 336.15680752 270.16041147 337.16015625 283.1015625 C337.29856607 285.19777004 337.29856607 285.19777004 338.40625 287.1328125 C338.6709488 290.54448598 338.85040224 293.94966746 339.01171875 297.3671875 C339.14312954 301.38032853 339.14312954 301.38032853 340.40625 305.1328125 C340.50234124 306.97594687 340.53420904 308.82257594 340.53564453 310.66821289 C340.54037277 312.40495018 340.54037277 312.40495018 340.54519653 314.17677307 C340.5431723 315.43199265 340.54114807 316.68721222 340.5390625 317.98046875 C340.54001923 319.26263779 340.54097595 320.54480682 340.54196167 321.86582947 C340.54343671 324.58024295 340.54128994 327.29462354 340.53662109 330.0090332 C340.53091822 333.49522291 340.53420754 336.98133573 340.54019356 340.46752262 C340.54466655 343.78434424 340.54153929 347.10114494 340.5390625 350.41796875 C340.54108673 351.67521255 340.54311096 352.93245636 340.54519653 354.22779846 C340.54204437 355.38247116 340.53889221 356.53714386 340.53564453 357.72680664 C340.53445114 359.25997276 340.53445114 359.25997276 340.53323364 360.82411194 C340.40625 363.1328125 340.40625 363.1328125 339.40625 364.1328125 C339.24427114 366.73947233 339.12696869 369.33614332 339.03125 371.9453125 C338.73430409 378.3978121 337.85333156 384.22846756 336.0859375 390.46484375 C335.44989199 392.96150517 335.17926395 395.19368843 335.03125 397.7578125 C334.45911895 405.02037398 332.09508873 411.95015346 330.05273438 418.90820312 C329.45869346 420.95234994 328.88750079 423.00082846 328.328125 425.0546875 C326.42734833 431.96385985 324.19654165 438.5375777 321.40625 445.1328125 C320.79997496 446.67365125 320.19587511 448.21534732 319.59375 449.7578125 C311.28247906 470.39269208 301.9469439 490.70912899 289.40625 509.1328125 C288.17101797 511.08732573 286.94153264 513.04548665 285.71875 515.0078125 C282.82455462 519.56250246 279.70529177 523.86605181 276.40625 528.1328125 C275.40415809 529.46457433 274.40417518 530.79792557 273.40625 532.1328125 C272.69927979 533.07012207 272.69927979 533.07012207 271.97802734 534.02636719 C271.00461892 535.33089777 270.04330036 536.64466455 269.10180664 537.97241211 C265.17762545 543.43186434 260.67315232 548.03462292 255.84375 552.6953125 C249.79887444 558.47935266 249.79887444 558.47935266 244.59375 565 C242.70070565 567.71110995 241.58091885 568.9003085 238.96875 570.6953125 C234.63524726 573.72958671 231.08957082 577.36375376 227.40625 581.1328125 C222.67266335 585.95626553 218.00059809 590.31288318 212.40625 594.1328125 C211.15325251 595.08722335 209.90337687 596.0457432 208.65625 597.0078125 C204.39875585 600.20093311 199.9815277 603.13425853 195.5390625 606.0625 C193.50355554 607.40766046 191.47690062 608.76634776 189.4609375 610.140625 C181.9972662 615.21592149 174.32104928 619.80533784 166.40625 624.1328125 C165.6745459 624.53290527 164.9428418 624.93299805 164.18896484 625.34521484 C135.24590814 641.0734254 104.41364738 652.8652434 71.81274414 658.18212891 C67.99436732 658.77193532 67.99436732 658.77193532 64.40625 660.1328125 C61.29355709 660.44713773 58.18007422 660.64371124 55.05859375 660.8515625 C52.48619595 660.84333248 52.48619595 660.84333248 51.40625 662.1328125 C49.94293379 662.27737436 48.47334324 662.3597726 47.00390625 662.4140625 C45.66875977 662.47013672 45.66875977 662.47013672 44.30664062 662.52734375 C43.37013672 662.56214844 42.43363281 662.59695313 41.46875 662.6328125 C39.62614241 662.70157602 37.78367711 662.77430168 35.94140625 662.8515625 C35.120354 662.88185547 34.29930176 662.91214844 33.45336914 662.94335938 C31.34162834 663.0139204 31.34162834 663.0139204 29.40625 664.1328125 C28.05857166 664.22676253 26.70641708 664.26074601 25.35546875 664.26220703 C24.10407104 664.26693527 24.10407104 664.26693527 22.82739258 664.27175903 C21.92529053 664.2697348 21.02318848 664.26771057 20.09375 664.265625 C19.16908936 664.26658173 18.24442871 664.26753845 17.29174805 664.26852417 C15.33479749 664.26920533 13.37784467 664.2673555 11.42089844 664.26318359 C8.41856836 664.25783445 5.4163879 664.26313075 2.4140625 664.26953125 C0.51562467 664.26887046 -1.38281307 664.26758927 -3.28125 664.265625 C-4.63440308 664.26866135 -4.63440308 664.26866135 -6.01489258 664.27175903 C-6.84915771 664.26860687 -7.68342285 664.26545471 -8.54296875 664.26220703 C-9.27862061 664.26141144 -10.01427246 664.26061584 -10.7722168 664.25979614 C-12.59375 664.1328125 -12.59375 664.1328125 -14.59375 663.1328125 C-16.3092782 662.99190968 -18.02958751 662.9069836 -19.75 662.8515625 C-21.28333984 662.79548828 -21.28333984 662.79548828 -22.84765625 662.73828125 C-24.45447266 662.68607422 -24.45447266 662.68607422 -26.09375 662.6328125 C-28.20847422 662.56410305 -30.32307326 662.49138706 -32.4375 662.4140625 C-33.84805664 662.36862305 -33.84805664 662.36862305 -35.28710938 662.32226562 C-37.59375 662.1328125 -37.59375 662.1328125 -39.59375 661.1328125 C-41.08954604 660.93188467 -42.59071724 660.76945184 -44.09375 660.6328125 C-48.37152778 660.24392361 -48.37152778 660.24392361 -50.59375 659.1328125 C-52.13274308 658.97834108 -53.67528275 658.85816176 -55.21875 658.7578125 C-59.35417629 658.38455769 -62.64969201 657.51401094 -66.45410156 655.91186523 C-68.57802843 655.13853677 -70.51397756 654.74882776 -72.7421875 654.390625 C-79.97389476 652.99578728 -86.88131667 650.58139848 -93.85009766 648.23950195 C-96.18984764 647.45500322 -98.53399378 646.6849242 -100.87890625 645.91601562 C-114.48770239 641.40389869 -127.58637088 636.01296708 -140.21875 629.1953125 C-141.011604 628.7720166 -141.80445801 628.3487207 -142.62133789 627.91259766 C-144.95104367 626.66260329 -147.27402868 625.40122651 -149.59375 624.1328125 C-150.25713379 623.77010254 -150.92051758 623.40739258 -151.60400391 623.03369141 C-172.67482362 611.43081712 -192.55657529 597.02828187 -210.59375 581.1328125 C-211.92660225 579.96559626 -213.25992979 578.7989225 -214.59375 577.6328125 C-215.25632812 577.05144531 -215.91890625 576.47007812 -216.6015625 575.87109375 C-217.90239967 574.73604956 -219.20946029 573.60808773 -220.5234375 572.48828125 C-228.07642578 566.01212463 -235.06314081 559.42872629 -240.59375 551.1328125 C-242.23804829 549.44407371 -243.90759218 547.77975735 -245.59375 546.1328125 C-249.13714084 542.66724137 -251.99226752 539.37226543 -254.59375 535.1328125 C-255.81022552 533.66023687 -257.02760241 532.18829198 -258.26171875 530.73046875 C-272.74142468 513.36331414 -283.28207351 493.12620603 -293.59375 473.1328125 C-293.95017578 472.44912598 -294.30660156 471.76543945 -294.67382812 471.06103516 C-296.98278684 466.56031819 -298.87863198 462.01387032 -300.59375 457.2578125 C-301.11224438 455.84206775 -301.63177241 454.42670112 -302.15234375 453.01171875 C-302.39968262 452.33898926 -302.64702148 451.66625977 -302.90185547 450.97314453 C-303.76096222 448.68805396 -304.70398493 446.44296649 -305.65625 444.1953125 C-308.04910459 438.31287831 -309.6909259 432.19988562 -311.43359375 426.1015625 C-312.26312548 423.2146046 -313.18273787 420.39086908 -314.21875 417.5703125 C-315.91534671 412.69259696 -316.71307434 407.61468054 -317.59228516 402.53881836 C-318.22101716 398.72253744 -318.22101716 398.72253744 -319.59375 395.1328125 C-319.90495284 392.57403357 -320.10339666 390.01429638 -320.3125 387.4453125 C-320.46511047 385.11012795 -320.46511047 385.11012795 -321.59375 383.1328125 C-321.91150722 379.53156405 -322.10541573 375.92949555 -322.3125 372.3203125 C-322.38800082 369.23858737 -322.38800082 369.23858737 -323.59375 367.1328125 C-323.6908334 364.92749572 -323.72172025 362.71917095 -323.72314453 360.51171875 C-323.72489685 359.83188934 -323.72664917 359.15205994 -323.72845459 358.45162964 C-323.73286375 356.19949813 -323.72993841 353.94744484 -323.7265625 351.6953125 C-323.72723581 350.13354477 -323.72820606 348.57177714 -323.72946167 347.01000977 C-323.73093737 343.73485314 -323.72878817 340.45972377 -323.72412109 337.18457031 C-323.71842388 332.98104178 -323.72170356 328.77757709 -323.72769356 324.5740509 C-323.7313026 321.34850583 -323.730159 318.12297595 -323.72756577 314.89743042 C-323.72689745 313.3472391 -323.72772161 311.79704641 -323.73004532 310.24685669 C-323.73257745 308.08250255 -323.72872332 305.91825261 -323.72314453 303.75390625 C-323.72234894 302.5208374 -323.72155334 301.28776855 -323.72073364 300.01733398 C-323.59375 297.1328125 -323.59375 297.1328125 -322.59375 295.1328125 C-322.38814193 292.80258772 -322.22775048 290.46824952 -322.09375 288.1328125 C-321.70486111 281.35503472 -321.70486111 281.35503472 -320.59375 279.1328125 C-320.28329474 276.54137345 -320.08401088 273.94909518 -319.875 271.34765625 C-319.59375 269.1328125 -319.59375 269.1328125 -318.59375 268.1328125 C-318.40784576 266.78094932 -318.27036771 265.42230572 -318.15625 264.0625 C-317.70571181 259.66628694 -316.81593259 255.5016701 -315.59375 251.2578125 C-315.38298828 250.5145874 -315.17222656 249.7713623 -314.95507812 249.00561523 C-312.83183394 241.68380471 -310.47724198 234.43586227 -308.09375 227.1953125 C-307.72636719 226.0707666 -307.35898437 224.9462207 -306.98046875 223.78759766 C-304.90819633 217.58817137 -302.5737922 211.65351893 -299.79125977 205.73950195 C-298.64970896 203.25462164 -297.63628561 200.75385002 -296.65234375 198.203125 C-294.32846442 192.30072803 -291.50845825 186.66949929 -288.65625 181.0078125 C-288.14384766 179.97527344 -287.63144531 178.94273437 -287.10351562 177.87890625 C-284.20318042 172.09297706 -281.1296681 166.55116712 -277.59375 161.1328125 C-276.8551681 159.95803737 -276.11815242 158.78227589 -275.3828125 157.60546875 C-271.09710373 150.82829561 -266.6223958 144.38825353 -261.59375 138.1328125 C-260.56677622 136.7832967 -259.54580688 135.42918791 -258.53125 134.0703125 C-257.80228516 133.09578125 -257.80228516 133.09578125 -257.05859375 132.1015625 C-256.068339 130.77066011 -255.08144347 129.43725272 -254.09765625 128.1015625 C-251.26590945 124.27686552 -248.35665752 120.57238044 -245.21899414 116.9934082 C-244.19321082 115.81908122 -243.17438467 114.63860659 -242.16552734 113.44970703 C-237.26213748 107.72058075 -232.00767739 102.36057829 -226.6784668 97.03222656 C-225.15707442 95.50863811 -223.64389083 93.97719869 -222.13085938 92.4453125 C-217.43218224 87.72006098 -212.75208871 83.17990854 -207.27905273 79.33837891 C-205.45369839 78.03262782 -203.77976501 76.61290968 -202.09375 75.1328125 C-199.03783539 72.47188005 -195.86647909 70.02492423 -192.60546875 67.62109375 C-191.32630489 66.67476087 -190.05677088 65.71516207 -188.80078125 64.73828125 C-182.98697773 60.2384717 -176.82296119 56.30317128 -170.60351562 52.39648438 C-169.24052198 51.53948059 -167.87991288 50.67867484 -166.52148438 49.81445312 C-157.91731001 44.34910681 -149.21088231 39.26243934 -140.09375 34.6953125 C-138.89371338 34.09408569 -138.89371338 34.09408569 -137.66943359 33.48071289 C-132.0838101 30.73997346 -126.39103138 28.38536335 -120.59375 26.1328125 C-118.92650941 25.46758243 -117.25977447 24.80108242 -115.59375 24.1328125 C-114.35431641 23.63974609 -114.35431641 23.63974609 -113.08984375 23.13671875 C-111.43109374 22.46958455 -109.77731949 21.78993756 -108.12890625 21.09765625 C-102.91340803 18.93071149 -97.73067068 17.27185686 -92.265625 15.8515625 C-87.37722668 14.53655476 -82.60678342 12.86013894 -77.84765625 11.140625 C-74.04413575 9.96258384 -70.26152793 9.24838945 -66.34375 8.5703125 C-61.32606322 7.82466839 -61.32606322 7.82466839 -56.59375 6.1328125 C-54.03497107 5.82160966 -51.47523388 5.62316584 -48.90625 5.4140625 C-46.57106545 5.26145203 -46.57106545 5.26145203 -44.59375 4.1328125 C-41.51369088 3.81780645 -38.43275088 3.62197602 -35.34375 3.4140625 C-32.63509007 3.30093758 -32.63509007 3.30093758 -30.59375 2.1328125 C-28.8782218 1.99190968 -27.15791249 1.9069836 -25.4375 1.8515625 C-24.41527344 1.81417969 -23.39304687 1.77679688 -22.33984375 1.73828125 C-19.09375 1.6328125 -19.09375 1.6328125 -15.84765625 1.52734375 C-14.82542969 1.48996094 -13.80320312 1.45257813 -12.75 1.4140625 C-11.33944336 1.36862305 -11.33944336 1.36862305 -9.90039062 1.32226562 C-6.39703325 1.03452162 -3.69516892 0.00406957 0 0 Z M-56.59375 11.1328125 C-57.56570313 11.33358398 -58.53765625 11.53435547 -59.5390625 11.74121094 C-111.75046685 22.80034978 -160.48858595 46.08865822 -201.59375 80.1328125 C-202.57859375 80.93203125 -203.5634375 81.73125 -204.578125 82.5546875 C-212.24214955 88.8739447 -219.36360734 95.6935111 -226.40625 102.6953125 C-227.27741455 103.55729248 -228.1485791 104.41927246 -229.04614258 105.30737305 C-234.21794913 110.50377211 -238.99719984 115.88368572 -243.57421875 121.61132812 C-245.59826164 124.13844551 -247.6810855 126.60632363 -249.78125 129.0703125 C-261.21734099 143.10097911 -270.91089719 158.27904643 -279.59375 174.1328125 C-280.07553711 174.99680664 -280.55732422 175.86080078 -281.05371094 176.75097656 C-314.81643137 237.53265999 -328.06047564 311.38397138 -316.59375 380.1328125 C-316.39507324 381.34855957 -316.19639648 382.56430664 -315.99169922 383.81689453 C-312.88568294 402.31572259 -308.52180758 420.32274048 -302.59375 438.1328125 C-302.29275391 439.04111816 -301.99175781 439.94942383 -301.68164062 440.88525391 C-291.14295286 471.9836885 -274.11076901 502.56339403 -253.59375 528.1328125 C-252.52331578 529.4894873 -251.45300636 530.84626059 -250.3828125 532.203125 C-235.94369789 550.36652055 -219.91413508 567.84085943 -201.59375 582.1328125 C-200.53634945 583.01106668 -199.48181856 583.89278365 -198.4296875 584.77734375 C-151.88581821 623.5672067 -94.31363954 647.62650687 -34.59375 656.1328125 C-33.66626953 656.26558594 -32.73878906 656.39835938 -31.78320312 656.53515625 C-6.0841646 659.99800928 21.74089347 659.65766833 47.40625 656.1328125 C48.36644043 656.00390625 49.32663086 655.875 50.31591797 655.7421875 C88.82168869 650.42510489 125.02234063 639.2939215 159.40625 621.1328125 C160.0971875 620.7713916 160.788125 620.4099707 161.5 620.03759766 C183.33564881 608.54124723 204.77752294 594.54935955 222.78125 577.58203125 C224.86285102 575.63982315 226.97231209 573.77413516 229.12890625 571.91796875 C233.8935331 567.76497923 238.37794314 563.35309726 242.84375 558.8828125 C243.68268799 558.04306885 244.52162598 557.2033252 245.38598633 556.33813477 C251.13747078 550.52946624 256.43668036 544.62737883 261.40625 538.1328125 C262.67672276 536.59084867 263.94756472 535.04918898 265.21875 533.5078125 C309.85628967 477.22569726 336.01274167 406.01270145 335.71875 334.0703125 C335.71701279 332.73876129 335.71701279 332.73876129 335.71524048 331.38031006 C335.67928262 317.36176944 334.9390121 303.67772411 332.81201172 289.80078125 C332.43327666 287.31051847 332.10166545 284.81912404 331.78515625 282.3203125 C323.37932079 219.19268942 293.24457238 160.47157649 251.40625 113.1328125 C250.92430176 112.58625 250.44235352 112.0396875 249.94580078 111.4765625 C241.95031569 102.46573474 233.37116641 94.1742316 224.40625 86.1328125 C223.86387695 85.64570801 223.32150391 85.15860352 222.76269531 84.65673828 C201.62870467 65.84682823 177.57527049 51.79836375 152.40625 39.1328125 C151.29564209 38.56651123 151.29564209 38.56651123 150.16259766 37.98876953 C87.82444769 6.36667725 11.6638408 -3.04908559 -56.59375 11.1328125 Z " fill="#FBFCFB" transform="translate(504.59375,178.8671875)"/>
<path d="M0 0 C4.06065888 3.88118225 5.2165459 5.66571049 5.4140625 11.2265625 C5.34092066 15.52505239 5.073168 18.68227722 1.81018066 21.85281372 C-6.34229194 27.02543931 -18.32486145 27.31902164 -27.7421875 28.796875 C-29.38239903 29.05916293 -31.02250808 29.32209241 -32.66252136 29.58561707 C-36.13295414 30.1423586 -39.6038812 30.69584769 -43.07528687 31.24649048 C-52.11869666 32.68118715 -61.15930831 34.13327856 -70.19921875 35.58984375 C-71.09539225 35.73407713 -71.99156574 35.87831051 -72.91489601 36.0269146 C-84.33739967 37.86782399 -95.74263053 39.77817919 -107.12890625 41.83203125 C-108.31408844 42.04553223 -109.49927063 42.2590332 -110.72036743 42.47900391 C-116.06455797 43.44631417 -121.40503765 44.43063823 -126.7421875 45.43603516 C-147.99027779 49.38070995 -147.99027779 49.38070995 -154.9609375 47.9765625 C-158.29054141 45.67844716 -160.59745276 43.83604388 -161.9609375 39.9765625 C-162.608918 36.22509645 -162.78022869 32.57790437 -161.015625 29.12890625 C-157.30727895 24.38268977 -152.92700477 23.00406907 -147.20825195 22.00610352 C-146.27800201 21.8411438 -145.34775208 21.67618408 -144.38931274 21.50622559 C-143.37783173 21.33272583 -142.36635071 21.15922607 -141.32421875 20.98046875 C-140.24490082 20.79109741 -139.16558289 20.60172607 -138.05355835 20.40661621 C-134.46116917 19.77829514 -130.86738465 19.1584054 -127.2734375 18.5390625 C-124.74907431 18.10035457 -122.2247422 17.66146771 -119.70043945 17.22241211 C-100.41022486 13.87730774 -81.10480922 10.62136036 -61.79403305 7.39728928 C-60.37167244 7.15981318 -58.94933181 6.92221741 -57.52701187 6.68449783 C-44.18727422 4.45514226 -30.84637573 2.22789698 -17.48046875 0.16015625 C-16.70265549 0.03641129 -15.92484222 -0.08733368 -15.12345886 -0.21482849 C-3.71864395 -1.94080621 -3.71864395 -1.94080621 0 0 Z " fill="#00182B" transform="translate(617.9609375,409.0234375)"/>
<path d="M0 0 C2.99579256 4.27970365 3.56254666 7.9510608 3.1875 13.125 C1.62921932 16.9796943 -0.37335157 18.88723822 -3.8125 21.125 C-17.89969242 25.98470485 -33.26697935 27.65924654 -47.90332031 30.20739746 C-51.24239629 30.79029305 -54.58007692 31.38107219 -57.91796875 31.97070312 C-63.88218144 33.02294083 -69.84891879 34.0598813 -75.81747818 35.08716393 C-79.87505077 35.78653106 -83.92993904 36.49961044 -87.98340797 37.22236919 C-90.01582362 37.58316718 -92.04906352 37.93883933 -94.08273315 38.29249573 C-96.59812566 38.73011963 -99.11220167 39.17541622 -101.62454224 39.63023376 C-121.08831521 42.97021714 -121.08831521 42.97021714 -126.91378784 40.08387756 C-129.78243659 37.76301993 -131.62235961 35.63525795 -132.0859375 31.953125 C-132.26604192 27.38124363 -132.16530507 24.75094448 -129.875 20.6875 C-121.78118196 13.91512164 -109.49745387 13.53408801 -99.375 11.875 C-97.56759885 11.57324616 -95.760309 11.27082504 -93.953125 10.96777344 C-89.20638216 10.17350023 -84.45826647 9.38776322 -79.70977783 8.60400391 C-73.98848382 7.65810837 -68.26884719 6.70225466 -62.54896545 5.74786377 C-58.08716785 5.00358451 -53.62515745 4.2606844 -49.16235352 3.52246094 C-47.51447403 3.24941922 -45.86660596 2.97630865 -44.21875 2.703125 C-43.42784973 2.5723053 -42.63694946 2.4414856 -41.82208252 2.30670166 C-37.90649554 1.65523467 -33.99599423 0.98348588 -30.09057617 0.2734375 C-28.94975586 0.06687531 -28.94975586 0.06687531 -27.78588867 -0.14385986 C-26.36971798 -0.40191746 -24.95419737 -0.66358469 -23.53955078 -0.92987061 C-6.13939395 -4.10262819 -6.13939395 -4.10262819 0 0 Z " fill="#00182B" transform="translate(613.8125,552.875)"/>
<path d="M0 0 C2.95662515 2.59606111 4.26337707 4.51823565 4.93359375 8.3984375 C5.06156351 12.68918818 4.80727065 14.83694952 2.5625 18.625 C-3.1289066 23.60498077 -10.74960116 24.99105491 -17.9765625 26.6796875 C-18.88371002 26.89317841 -19.79085754 27.10666931 -20.72549438 27.32662964 C-30.36668355 29.54255351 -40.08247857 31.25964995 -49.83886719 32.88037109 C-52.80556552 33.37384653 -55.77000738 33.8794499 -58.734375 34.38671875 C-68.73047494 36.08120698 -78.74139543 37.63479746 -88.7890625 38.9921875 C-89.71093353 39.12037872 -90.63280457 39.24856995 -91.58261108 39.38064575 C-107.26694789 41.42687959 -107.26694789 41.42687959 -111.35122681 39.21237183 C-114.30208255 36.81883987 -116.23892775 34.85276176 -116.7109375 31.04296875 C-116.98519874 24.00711297 -116.98519874 24.00711297 -114.3125 20.3125 C-108.47019121 16.12127848 -103.32890827 14.64845457 -96.34375 13.70703125 C-94.50753197 13.43929566 -92.67135194 13.17129941 -90.83520508 12.90307617 C-89.39221542 12.69791885 -89.39221542 12.69791885 -87.92007446 12.48861694 C-67.10291414 9.51449347 -46.60650994 5.5909614 -26.08154297 1.05078125 C-6.42205028 -3.26940742 -6.42205028 -3.26940742 0 0 Z " fill="#00182B" transform="translate(585.4375,484.75)"/>
<path d="M0 0 C-3.52047252 2.34698168 -7.09054842 3.39639708 -11.09765625 4.6015625 C-11.88772568 4.8428891 -12.6777951 5.0842157 -13.49180603 5.33285522 C-15.15959134 5.84112579 -16.8281147 6.34697996 -18.49731445 6.85058594 C-21.05799185 7.62363902 -23.61603907 8.40494976 -26.17382812 9.1875 C-27.79412199 9.68017728 -29.41455992 10.17238106 -31.03515625 10.6640625 C-31.80287857 10.89839996 -32.57060089 11.13273743 -33.36158752 11.37417603 C-38.76835028 13 -38.76835028 13 -41 13 C-41.33 11.35 -41.66 9.7 -42 8 C-39.27794693 7.09264898 -37.27007841 7.01797451 -34.3515625 7.08984375 C-29.95405033 7.11681622 -26.09109173 6.23634442 -21.875 5.0625 C-17.27249607 3.82201561 -12.72224929 2.69877521 -8 2 C-8 1.34 -8 0.68 -8 0 C-5.13822943 -1.43088528 -3.06624227 -0.59991697 0 0 Z " fill="#106DF1" transform="translate(251,625)"/>
<path d="M0 0 C0.66 0.33 1.32 0.66 2 1 C-4.03901239 3.59851735 -10.18250225 5.8008531 -16.4375 7.8125 C-17.48454102 8.15897583 -17.48454102 8.15897583 -18.55273438 8.51245117 C-23.64688678 10.11770441 -23.64688678 10.11770441 -27 9 C-24.09399739 7.74335022 -22.20395416 7 -19 7 C-18.67 6.01 -18.34 5.02 -18 4 C-17.20335937 3.87882812 -16.40671875 3.75765625 -15.5859375 3.6328125 C-10.18426523 2.77853343 -5.18289013 1.77309399 0 0 Z " fill="#0C69F3" transform="translate(795,452)"/>
<path d="M0 0 C0.99 0.33 1.98 0.66 3 1 C1.66036133 4.60671949 -0.00030542 7.72050089 -2 11 C-2.7115625 12.60875 -2.7115625 12.60875 -3.4375 14.25 C-5 17 -5 17 -7.09765625 17.671875 C-7.72542969 17.78015625 -8.35320313 17.8884375 -9 18 C-8.43410156 16.95199219 -7.86820313 15.90398437 -7.28515625 14.82421875 C-6.54414712 13.44537898 -5.8032685 12.06646906 -5.0625 10.6875 C-4.50272461 9.65206055 -4.50272461 9.65206055 -3.93164062 8.59570312 C-3.57392578 7.92861328 -3.21621094 7.26152344 -2.84765625 6.57421875 C-2.51773682 5.96151123 -2.18781738 5.34880371 -1.84790039 4.7175293 C-0.8676439 2.83026062 -0.8676439 2.83026062 0 0 Z " fill="#1686F4" transform="translate(629,301)"/>
<path d="M0 0 C-0.33 1.65 -0.66 3.3 -1 5 C-2.32 5 -3.64 5 -5 5 C-5 4.34 -5 3.68 -5 3 C-8.3 3.33 -11.6 3.66 -15 4 C-12.39457984 2.26305323 -10.41657225 1.30899552 -7.5 0.3125 C-6.33984375 -0.09548828 -6.33984375 -0.09548828 -5.15625 -0.51171875 C-3 -1 -3 -1 0 0 Z " fill="#E9D433" transform="translate(833,443)"/>
<path d="M0 0 C2.31 0.33 4.62 0.66 7 1 C4.27136433 3.72863567 1.08993105 4.47085394 -2.5 5.625 C-3.18964844 5.85445312 -3.87929688 6.08390625 -4.58984375 6.3203125 C-9.71888951 8 -9.71888951 8 -12 8 C-12 7.34 -12 6.68 -12 6 C-9.69 5.34 -7.38 4.68 -5 4 C-5 3.34 -5 2.68 -5 2 C-3.35 2 -1.7 2 0 2 C0 1.34 0 0.68 0 0 Z " fill="#126DEE" transform="translate(316,601)"/>
<path d="M0 0 C0 0.66 0 1.32 0 2 C-5.6702363 3.54642808 -11.147205 4.48517081 -17 5 C-14.51737568 2.51737568 -12.38224713 1.92713025 -9.0625 0.8125 C-8.00160156 0.44769531 -6.94070313 0.08289063 -5.84765625 -0.29296875 C-3 -1 -3 -1 0 0 Z " fill="#F4DA26" transform="translate(742,472)"/>
<path d="M0 0 C2.97 0.495 2.97 0.495 6 1 C5 3 5 3 2.19921875 4.10546875 C1.04035156 4.46253906 -0.11851562 4.81960938 -1.3125 5.1875 C-3.03919922 5.73470703 -3.03919922 5.73470703 -4.80078125 6.29296875 C-7.79539693 6.95478247 -9.19748119 7.08640853 -12 6 C-11.21753906 5.81824219 -10.43507813 5.63648438 -9.62890625 5.44921875 C-8.11103516 5.07216797 -8.11103516 5.07216797 -6.5625 4.6875 C-5.04849609 4.32205078 -5.04849609 4.32205078 -3.50390625 3.94921875 C-2.26447266 3.47935547 -2.26447266 3.47935547 -1 3 C-0.67 2.01 -0.34 1.02 0 0 Z " fill="#0B6DF5" transform="translate(750,464)"/>
<path d="M0 0 C-0.33 0.99 -0.66 1.98 -1 3 C-1.99 3 -2.98 3 -4 3 C-4.33 3.66 -4.66 4.32 -5 5 C-5.66 5 -6.32 5 -7 5 C-7 4.34 -7 3.68 -7 3 C-8.98 3 -10.96 3 -13 3 C-8.83099908 0.22066605 -4.8978425 -1.63261417 0 0 Z " fill="#F2D92B" transform="translate(784,459)"/>
<path d="M0 0 C3.32597281 3.53105961 3.46770164 6.50235535 3.6875 11.25 C3.75324219 12.51328125 3.81898438 13.7765625 3.88671875 15.078125 C3.92410156 16.04234375 3.96148437 17.0065625 4 18 C0.4317767 12.64766505 -0.32665309 6.36973531 0 0 Z " fill="#050B21" transform="translate(324,597)"/>
<path d="M0 0 C0.33 0 0.66 0 1 0 C1.28571429 8.57142857 1.28571429 8.57142857 -1 12 C-2.3899408 9.2201184 -2.18488204 7.0813674 -2 4 C-1 1.625 -1 1.625 0 0 Z " fill="#010F1A" transform="translate(454,668)"/>
<path d="M0 0 C1.6875 1.25 1.6875 1.25 2.6875 3.25 C1.02138095 3.292721 -0.64632885 3.29063832 -2.3125 3.25 C-2.6425 2.92 -2.9725 2.59 -3.3125 2.25 C-5.65194736 2.53730055 -7.9864143 2.86936779 -10.3125 3.25 C-7.37805564 0.31555564 -4.09672602 -1.3286679 0 0 Z " fill="#F2D929" transform="translate(227.3125,633.75)"/>
<path d="M0 0 C4.25 6.375 4.25 6.375 3.625 10.6875 C3.51414062 11.49574219 3.40328125 12.30398438 3.2890625 13.13671875 C3.19367188 13.75160156 3.09828125 14.36648438 3 15 C1.08697693 11.73386305 0.64325339 9.00554752 0.375 5.25 C0.30023438 4.26515625 0.22546875 3.2803125 0.1484375 2.265625 C0.09945313 1.51796875 0.05046875 0.7703125 0 0 Z " fill="#000C13" transform="translate(290,426)"/>
<path d="M0 0 C0 0.66 0 1.32 0 2 C-7.625 3.25 -7.625 3.25 -11 1 C-7.32589215 -0.17571451 -3.83070817 -0.07366746 0 0 Z " fill="#010F1A" transform="translate(508,497)"/>
<path d="M0 0 C0.33 0.99 0.66 1.98 1 3 C-0.98 3.99 -0.98 3.99 -3 5 C-3 4.01 -3 3.02 -3 2 C-3.33 2.66 -3.66 3.32 -4 4 C-4.99 3.67 -5.98 3.34 -7 3 C-7 2.34 -7 1.68 -7 1 C-4 0 -4 0 0 0 Z " fill="#F8DA27" transform="translate(807,451)"/>
<path d="M0 0 C0.33 0.99 0.66 1.98 1 3 C-1.39763185 5.39763185 -2.33273498 5.34280586 -5.625 5.625 C-6.44226563 5.69976563 -7.25953125 5.77453125 -8.1015625 5.8515625 C-8.72804688 5.90054688 -9.35453125 5.94953125 -10 6 C-7.08616689 4.05744459 -4.12736438 2.56368219 -1 1 C-0.67 0.67 -0.34 0.34 0 0 Z " fill="#10152A" transform="translate(415,697)"/>
<path d="M0 0 C0.99 0 1.98 0 3 0 C2.67 2.97 2.34 5.94 2 9 C1.67 9 1.34 9 1 9 C0.67 6.03 0.34 3.06 0 0 Z " fill="#191F2A" transform="translate(427,626)"/>
</svg>
