<svg width="200" height="200" viewBox="0 0 200 200" xmlns="http://www.w3.org/2000/svg">
  <!-- QR Code pattern (simplified for demo) -->
  <rect width="200" height="200" fill="white"/>
  
  <!-- Corner squares -->
  <rect x="10" y="10" width="30" height="30" fill="black"/>
  <rect x="12" y="12" width="26" height="26" fill="white"/>
  <rect x="14" y="14" width="22" height="22" fill="black"/>
  
  <rect x="160" y="10" width="30" height="30" fill="black"/>
  <rect x="162" y="12" width="26" height="26" fill="white"/>
  <rect x="164" y="14" width="22" height="22" fill="black"/>
  
  <rect x="10" y="160" width="30" height="30" fill="black"/>
  <rect x="12" y="162" width="26" height="26" fill="white"/>
  <rect x="14" y="164" width="22" height="22" fill="black"/>
  
  <!-- Data pattern (simplified) -->
  <rect x="50" y="10" width="10" height="10" fill="black"/>
  <rect x="70" y="10" width="10" height="10" fill="black"/>
  <rect x="90" y="10" width="10" height="10" fill="black"/>
  <rect x="110" y="10" width="10" height="10" fill="black"/>
  <rect x="130" y="10" width="10" height="10" fill="black"/>
  
  <rect x="10" y="50" width="10" height="10" fill="black"/>
  <rect x="30" y="50" width="10" height="10" fill="black"/>
  <rect x="50" y="50" width="10" height="10" fill="black"/>
  <rect x="70" y="50" width="10" height="10" fill="black"/>
  <rect x="90" y="50" width="10" height="10" fill="black"/>
  <rect x="110" y="50" width="10" height="10" fill="black"/>
  <rect x="130" y="50" width="10" height="10" fill="black"/>
  <rect x="150" y="50" width="10" height="10" fill="black"/>
  
  <rect x="50" y="70" width="10" height="10" fill="black"/>
  <rect x="90" y="70" width="10" height="10" fill="black"/>
  <rect x="110" y="70" width="10" height="10" fill="black"/>
  <rect x="130" y="70" width="10" height="10" fill="black"/>
  
  <rect x="50" y="90" width="10" height="10" fill="black"/>
  <rect x="70" y="90" width="10" height="10" fill="black"/>
  <rect x="90" y="90" width="10" height="10" fill="black"/>
  <rect x="130" y="90" width="10" height="10" fill="black"/>
  <rect x="150" y="90" width="10" height="10" fill="black"/>
  
  <rect x="50" y="110" width="10" height="10" fill="black"/>
  <rect x="70" y="110" width="10" height="10" fill="black"/>
  <rect x="90" y="110" width="10" height="10" fill="black"/>
  <rect x="110" y="110" width="10" height="10" fill="black"/>
  <rect x="130" y="110" width="10" height="10" fill="black"/>
  <rect x="150" y="110" width="10" height="10" fill="black"/>
  
  <rect x="50" y="130" width="10" height="10" fill="black"/>
  <rect x="90" y="130" width="10" height="10" fill="black"/>
  <rect x="110" y="130" width="10" height="10" fill="black"/>
  <rect x="130" y="130" width="10" height="10" fill="black"/>
  
  <rect x="50" y="150" width="10" height="10" fill="black"/>
  <rect x="70" y="150" width="10" height="10" fill="black"/>
  <rect x="90" y="150" width="10" height="10" fill="black"/>
  <rect x="110" y="150" width="10" height="10" fill="black"/>
  <rect x="130" y="150" width="10" height="10" fill="black"/>
  <rect x="150" y="150" width="10" height="10" fill="black"/>
  
  <!-- Center alignment pattern -->
  <rect x="80" y="80" width="40" height="40" fill="black"/>
  <rect x="82" y="82" width="36" height="36" fill="white"/>
  <rect x="84" y="84" width="32" height="32" fill="black"/>
  <rect x="86" y="86" width="28" height="28" fill="white"/>
  <rect x="88" y="88" width="24" height="24" fill="black"/>
  <rect x="90" y="90" width="20" height="20" fill="white"/>
  <rect x="92" y="92" width="16" height="16" fill="black"/>
</svg>
